<svg xmlns="http://www.w3.org/2000/svg" width="14.091" height="10.733" viewBox="0 0 14.091 10.733">
  <g id="mail" transform="translate(0 -61)">
    <g id="Group_529" data-name="Group 529" transform="translate(0 61)">
      <path id="Path_239" data-name="Path 239" d="M12.853,61H1.238A1.241,1.241,0,0,0,0,62.238v8.256a1.24,1.24,0,0,0,1.238,1.238H12.853a1.24,1.24,0,0,0,1.238-1.238V62.238A1.24,1.24,0,0,0,12.853,61Zm-.171.826-5.61,5.61-5.658-5.61ZM.826,70.324V62.405L4.8,66.348Zm.584.584,3.979-3.979,1.394,1.382a.413.413,0,0,0,.583,0l1.359-1.359,3.957,3.957Zm11.856-.584L9.308,66.367l3.957-3.957Z" transform="translate(0 -61)" fill="#1f1f25"/>
    </g>
  </g>
</svg>