<svg xmlns="http://www.w3.org/2000/svg" width="12.377" height="18" viewBox="0 0 12.377 18">
  <g id="location" transform="translate(-79.968 0.001)">
    <path id="Path_225" data-name="Path 225" d="M86.156,18a1.075,1.075,0,0,1-.941-.545l-.006-.011-4.463-8.17a6.267,6.267,0,0,1,.082-6.192A6.108,6.108,0,0,1,86.018,0c.092,0,.185,0,.277,0a6.108,6.108,0,0,1,5.19,3.081,6.267,6.267,0,0,1,.082,6.192L87.1,17.444l-.006.011a1.075,1.075,0,0,1-.941.545Zm0-16.875h-.116a4.992,4.992,0,0,0-4.24,2.52,5.15,5.15,0,0,0-.068,5.088l4.423,8.1,4.423-8.1a5.15,5.15,0,0,0-.068-5.088,4.992,4.992,0,0,0-4.24-2.52h-.116Z" transform="translate(0 0)" fill="#1f1f25"/>
    <path id="Path_226" data-name="Path 226" d="M186.531,93.062a2.531,2.531,0,1,1,2.531-2.531A2.534,2.534,0,0,1,186.531,93.062Zm0-3.937a1.406,1.406,0,1,0,1.406,1.406A1.408,1.408,0,0,0,186.531,89.125Z" transform="translate(-100.375 -84.907)" fill="#1f1f25"/>
  </g>
</svg>