<svg width="15" height="15" viewBox="0 0 20 19" fill="none" xmlns="http://www.w3.org/2000/svg">
<path d="M15.9841 18.5349H1.27979C0.573699 18.5349 0 17.9612 0 17.2551V7.03442C0 6.58429 0.15887 5.93998 0.361871 5.53398L2.7361 0.917917C3.00088 0.397176 3.64519 0 4.23654 0H12.4272C13.0009 0 13.6452 0.353045 13.9453 0.847308L16.8226 5.5075C17.0697 5.90468 17.2551 6.55781 17.2551 7.02559V7.66108H15.9753V7.03442C15.9753 6.80494 15.8517 6.38129 15.737 6.18711L12.8597 1.52692C12.7891 1.42101 12.5596 1.28861 12.4272 1.28861H4.23654C4.1218 1.28861 3.92762 1.41218 3.87467 1.50927L1.50044 6.12533C1.3857 6.34598 1.27979 6.78729 1.27979 7.04325V17.2727H15.9841C16.0724 17.2727 16.1342 17.2551 16.1518 17.2462C16.143 17.2551 16.1342 17.2639 16.1165 17.2727H17.2639V17.5905C17.2551 18.1289 16.7167 18.5349 15.9841 18.5349Z" fill="black"/>
<path d="M16.6196 5.75463H0.644302V7.03442H16.6196V5.75463Z" fill="black"/>
<path d="M17.3257 8.94969V11.7387H20V12.9391H17.3257V15.7546H16.0724V12.9391H13.3981V11.7387H16.0724V8.94969H17.3257Z" fill="black"/>
</svg>
