<svg width="24" height="24" viewBox="0 0 24 24" fill="none" xmlns="http://www.w3.org/2000/svg">
<path d="M11.3101 11.98C13.7801 11.98 15.8001 9.97 15.8001 7.49C15.8001 5.02 13.7901 3 11.3101 3C8.84007 3 6.82007 5.01 6.82007 7.49C6.83007 9.97 8.84007 11.98 11.3101 11.98ZM11.3101 4.19C13.1401 4.19 14.6201 5.68 14.6201 7.5C14.6201 9.33 13.1301 10.81 11.3101 10.81C9.48007 10.81 8.00006 9.32 8.00006 7.5C8.00006 5.67 9.49007 4.19 11.3101 4.19Z" fill="black"/>
<path d="M23.16 18.09C23.16 15.66 21.18 13.69 18.76 13.69C17.8 13.69 16.9 14 16.14 14.56C14.93 13.55 13.37 12.94 11.68 12.94C9.94001 12.94 8.35 13.58 7.13 14.64L7.12001 14.63C6.34001 14.01 5.40001 13.69 4.40001 13.69C1.97001 13.69 0 15.67 0 18.09V18.68L4.83 18.69C4.76 19.09 4.72 19.49 4.72 19.91V20.5H18.65V19.91C18.65 19.49 18.61 19.08 18.54 18.68H23.18V18.09H23.16ZM1.21001 17.5C1.49001 16 2.81001 14.86 4.39001 14.86C5.08001 14.86 5.73001 15.08 6.29001 15.49C5.80001 16.09 5.41001 16.77 5.14001 17.52L1.21001 17.5ZM5.90001 19.31C5.92001 19.1 5.96 18.89 6 18.68H6.03001V18.54C6.64001 16 8.93 14.1 11.66 14.1C14.66 14.1 17.13 16.39 17.42 19.3H5.90001V19.31ZM18.2 17.5C17.92 16.73 17.5 16.02 16.98 15.4C17.51 15.05 18.11 14.86 18.76 14.86C20.34 14.86 21.66 16 21.94 17.5H18.2Z" fill="black"/>
<path d="M4.38997 13.1C5.51997 13.1 6.44997 12.18 6.44997 11.04C6.44997 9.9 5.52997 8.98 4.38997 8.98C3.24997 8.98 2.32996 9.9 2.32996 11.04C2.32996 12.18 3.24997 13.1 4.38997 13.1ZM4.38997 10.16C4.87997 10.16 5.26996 10.56 5.26996 11.04C5.26996 11.52 4.86997 11.92 4.38997 11.92C3.89997 11.92 3.50996 11.52 3.50996 11.04C3.50996 10.56 3.89997 10.16 4.38997 10.16Z" fill="black"/>
<path d="M19.07 13.1C20.2 13.1 21.13 12.18 21.13 11.04C21.13 9.9 20.21 8.98 19.07 8.98C17.93 8.98 17.01 9.9 17.01 11.04C17.01 12.18 17.94 13.1 19.07 13.1ZM19.07 10.16C19.56 10.16 19.95 10.56 19.95 11.04C19.95 11.52 19.55 11.92 19.07 11.92C18.58 11.92 18.19 11.52 18.19 11.04C18.19 10.56 18.58 10.16 19.07 10.16Z" fill="black"/>
</svg>
