<svg width="24" height="24" viewBox="0 0 24 24" fill="none" xmlns="http://www.w3.org/2000/svg">
<path d="M18.52 21.13H17.97C17.53 21.13 17.17 20.77 17.17 20.33V20.14C16.98 20.08 16.8 20 16.62 19.91L16.49 20.04C16.17 20.36 15.66 20.35 15.35 20.04L14.96 19.65C14.65 19.34 14.64 18.83 14.96 18.51L15.09 18.38C15 18.2 14.92 18.02 14.86 17.83H14.67C14.23 17.83 13.87 17.47 13.87 17.03V16.48C13.87 16.04 14.23 15.68 14.67 15.68H14.86C14.92 15.49 15 15.31 15.09 15.13L14.96 15C14.64 14.68 14.65 14.17 14.96 13.86L15.35 13.47C15.66 13.16 16.17 13.15 16.49 13.47L16.62 13.6C16.8 13.51 16.98 13.43 17.17 13.37V13.18C17.17 12.74 17.53 12.38 17.97 12.38H18.52C18.96 12.38 19.32 12.74 19.32 13.18V13.37C19.51 13.43 19.69 13.51 19.87 13.6L20 13.47C20.32 13.15 20.83 13.16 21.14 13.47L21.53 13.86C21.84 14.17 21.85 14.68 21.53 15L21.4 15.13C21.49 15.31 21.57 15.49 21.63 15.68H21.82C22.26 15.68 22.62 16.04 22.62 16.48V17.03C22.62 17.47 22.26 17.83 21.82 17.83H21.63C21.57 18.02 21.49 18.2 21.4 18.38L21.53 18.51C21.85 18.83 21.84 19.34 21.53 19.65L21.14 20.04C20.83 20.35 20.32 20.36 20 20.04L19.87 19.91C19.69 20 19.51 20.08 19.32 20.14V20.33C19.32 20.77 18.96 21.13 18.52 21.13ZM16.7 19.37C16.94 19.51 17.21 19.62 17.48 19.69C17.59 19.72 17.67 19.82 17.67 19.94V20.32C17.67 20.48 17.8 20.61 17.96 20.61H18.51C18.67 20.61 18.8 20.48 18.8 20.32V19.94C18.8 19.82 18.88 19.72 18.99 19.69C19.26 19.62 19.53 19.51 19.77 19.37C19.87 19.31 20 19.33 20.08 19.41L20.35 19.68C20.47 19.8 20.65 19.79 20.76 19.68L21.15 19.29C21.26 19.18 21.27 18.99 21.15 18.88L20.88 18.61C20.8 18.53 20.78 18.4 20.84 18.3C20.98 18.06 21.09 17.79 21.16 17.52C21.19 17.41 21.29 17.33 21.41 17.33H21.79C21.95 17.33 22.08 17.2 22.08 17.04V16.49C22.08 16.33 21.95 16.2 21.79 16.2H21.41C21.29 16.2 21.19 16.12 21.16 16.01C21.09 15.74 20.98 15.47 20.84 15.23C20.78 15.13 20.8 15 20.88 14.92L21.15 14.65C21.27 14.53 21.26 14.35 21.15 14.24L20.76 13.85C20.65 13.74 20.46 13.73 20.35 13.85L20.08 14.12C20 14.2 19.87 14.22 19.77 14.16C19.53 14.02 19.26 13.91 18.99 13.84C18.88 13.81 18.8 13.71 18.8 13.59V13.21C18.8 13.05 18.67 12.92 18.51 12.92H17.96C17.8 12.92 17.67 13.05 17.67 13.21V13.59C17.67 13.71 17.59 13.81 17.48 13.84C17.21 13.91 16.94 14.02 16.7 14.16C16.6 14.22 16.47 14.2 16.39 14.12L16.12 13.85C16 13.73 15.82 13.74 15.71 13.85L15.32 14.24C15.21 14.35 15.2 14.54 15.32 14.65L15.59 14.92C15.67 15 15.69 15.13 15.63 15.23C15.49 15.47 15.38 15.74 15.31 16.01C15.28 16.12 15.18 16.2 15.06 16.2H14.68C14.52 16.2 14.39 16.33 14.39 16.49V17.04C14.39 17.2 14.52 17.33 14.68 17.33H15.06C15.18 17.33 15.28 17.41 15.31 17.52C15.38 17.79 15.49 18.06 15.63 18.3C15.69 18.4 15.67 18.53 15.59 18.61L15.32 18.88C15.2 19 15.21 19.18 15.32 19.29L15.71 19.68C15.82 19.79 16.01 19.8 16.12 19.68L16.39 19.41C16.45 19.35 16.58 19.3 16.7 19.37Z" fill="black"/>
<path d="M18.52 21.26H17.97C17.45 21.26 17.03 20.84 17.03 20.32V20.23C16.9 20.18 16.77 20.13 16.64 20.07L16.58 20.13C16.4 20.31 16.17 20.41 15.92 20.41C15.67 20.41 15.43 20.31 15.25 20.13L14.86 19.74C14.68 19.56 14.59 19.33 14.58 19.08C14.58 18.83 14.68 18.59 14.86 18.41L14.92 18.35C14.86 18.22 14.81 18.1 14.76 17.96H14.67C14.15 17.96 13.73 17.54 13.73 17.02V16.47C13.73 15.95 14.15 15.53 14.67 15.53H14.76C14.81 15.4 14.86 15.27 14.92 15.14L14.86 15.08C14.68 14.9 14.58 14.67 14.58 14.42C14.58 14.17 14.68 13.93 14.86 13.75L15.25 13.36C15.43 13.18 15.66 13.08 15.92 13.08C16.17 13.08 16.41 13.18 16.58 13.36L16.64 13.42C16.77 13.36 16.9 13.31 17.03 13.26V13.17C17.03 12.65 17.45 12.23 17.97 12.23H18.52C19.04 12.23 19.46 12.65 19.46 13.17V13.26C19.59 13.31 19.72 13.36 19.85 13.42L19.91 13.36C20.27 13 20.89 13.01 21.24 13.36L21.63 13.75C21.81 13.93 21.91 14.16 21.91 14.42C21.91 14.67 21.81 14.91 21.63 15.08L21.57 15.14C21.63 15.27 21.68 15.4 21.73 15.53H21.82C22.34 15.53 22.76 15.95 22.76 16.47V17.02C22.76 17.54 22.34 17.96 21.82 17.96H21.73C21.68 18.09 21.63 18.22 21.57 18.35L21.63 18.41C21.81 18.59 21.91 18.82 21.91 19.07C21.91 19.32 21.81 19.56 21.63 19.74L21.24 20.13C21.06 20.31 20.83 20.41 20.57 20.41C20.32 20.41 20.08 20.31 19.91 20.13L19.85 20.07C19.72 20.13 19.59 20.18 19.46 20.23V20.32C19.46 20.84 19.04 21.26 18.52 21.26ZM16.59 19.74L16.68 19.79C16.85 19.88 17.03 19.95 17.21 20.01L17.3 20.04V20.32C17.3 20.69 17.6 20.99 17.97 20.99H18.52C18.89 20.99 19.19 20.69 19.19 20.32V20.04L19.28 20.01C19.46 19.95 19.64 19.88 19.81 19.79L19.9 19.74L20.1 19.94C20.23 20.07 20.39 20.14 20.57 20.14C20.75 20.14 20.92 20.07 21.04 19.94L21.43 19.55C21.56 19.42 21.63 19.25 21.63 19.07C21.63 18.89 21.56 18.72 21.43 18.6L21.23 18.4L21.28 18.31C21.37 18.14 21.44 17.96 21.5 17.78L21.53 17.69H21.81C22.18 17.69 22.48 17.39 22.48 17.02V16.47C22.48 16.1 22.18 15.8 21.81 15.8H21.53L21.5 15.71C21.44 15.53 21.37 15.35 21.28 15.18L21.23 15.09L21.43 14.89C21.56 14.76 21.63 14.6 21.63 14.42C21.63 14.24 21.56 14.07 21.43 13.95L21.04 13.56C20.79 13.31 20.35 13.31 20.09 13.56L19.89 13.76L19.8 13.71C19.63 13.62 19.45 13.55 19.27 13.49L19.18 13.46V13.18C19.18 12.81 18.88 12.51 18.51 12.51H17.96C17.59 12.51 17.29 12.81 17.29 13.18V13.46L17.2 13.49C17.02 13.55 16.84 13.62 16.67 13.71L16.58 13.76L16.38 13.56C16.13 13.31 15.69 13.31 15.43 13.56L15.04 13.95C14.91 14.08 14.84 14.24 14.84 14.42C14.84 14.6 14.91 14.77 15.04 14.89L15.24 15.09L15.19 15.18C15.1 15.35 15.03 15.53 14.97 15.71L14.94 15.8H14.66C14.29 15.8 13.99 16.1 13.99 16.47V17.02C13.99 17.39 14.29 17.69 14.66 17.69H14.94L14.97 17.78C15.03 17.96 15.1 18.14 15.19 18.31L15.24 18.4L15.04 18.6C14.91 18.73 14.84 18.9 14.84 19.08C14.84 19.26 14.91 19.43 15.04 19.55L15.43 19.94C15.56 20.07 15.72 20.14 15.9 20.14C16.08 20.14 16.25 20.07 16.37 19.94L16.59 19.74ZM18.52 20.75H17.97C17.73 20.75 17.54 20.56 17.54 20.32V19.94C17.54 19.88 17.5 19.84 17.45 19.82C17.16 19.75 16.89 19.63 16.63 19.48C16.55 19.43 16.48 19.5 16.48 19.5L16.21 19.77C16.13 19.85 16.02 19.9 15.91 19.9C15.8 19.9 15.69 19.86 15.61 19.77L15.22 19.38C15.14 19.3 15.09 19.19 15.09 19.08C15.09 18.97 15.13 18.86 15.22 18.78L15.49 18.51C15.53 18.47 15.54 18.41 15.51 18.36C15.36 18.1 15.24 17.83 15.17 17.54C15.16 17.49 15.11 17.45 15.05 17.45H14.67C14.43 17.45 14.24 17.26 14.24 17.02V16.47C14.24 16.23 14.43 16.04 14.67 16.04H15.05C15.11 16.04 15.15 16 15.17 15.95C15.24 15.66 15.36 15.39 15.51 15.13C15.54 15.08 15.53 15.02 15.49 14.98L15.22 14.71C15.14 14.63 15.09 14.52 15.09 14.41C15.09 14.3 15.14 14.19 15.22 14.11L15.61 13.72C15.69 13.64 15.8 13.59 15.91 13.59C16.02 13.59 16.13 13.63 16.21 13.72L16.48 13.99C16.52 14.03 16.58 14.04 16.63 14.01C16.89 13.86 17.16 13.74 17.45 13.67C17.5 13.66 17.54 13.61 17.54 13.55V13.17C17.54 12.93 17.73 12.74 17.97 12.74H18.52C18.76 12.74 18.95 12.93 18.95 13.17V13.55C18.95 13.61 18.99 13.65 19.04 13.67C19.33 13.74 19.6 13.86 19.86 14.01C19.91 14.04 19.97 14.03 20.01 13.99L20.28 13.72C20.44 13.56 20.72 13.56 20.88 13.72L21.27 14.11C21.35 14.19 21.4 14.3 21.4 14.41C21.4 14.52 21.36 14.63 21.27 14.71L21 14.98C20.96 15.02 20.95 15.08 20.98 15.13C21.13 15.39 21.25 15.66 21.32 15.95C21.33 16 21.38 16.04 21.44 16.04H21.82C22.06 16.04 22.25 16.23 22.25 16.47V17.02C22.25 17.26 22.06 17.45 21.82 17.45H21.44C21.38 17.45 21.34 17.49 21.32 17.54C21.25 17.83 21.13 18.1 20.98 18.36C20.95 18.41 20.96 18.47 21 18.51L21.27 18.78C21.35 18.86 21.4 18.97 21.4 19.08C21.4 19.19 21.36 19.3 21.27 19.38L20.88 19.77C20.72 19.93 20.44 19.93 20.28 19.77L20.01 19.5C19.97 19.46 19.91 19.45 19.86 19.48C19.6 19.63 19.33 19.75 19.04 19.82C18.99 19.83 18.95 19.88 18.95 19.94V20.32C18.95 20.56 18.75 20.75 18.52 20.75ZM16.77 19.26C17 19.4 17.26 19.5 17.52 19.57C17.69 19.61 17.81 19.77 17.81 19.95V20.33C17.81 20.42 17.88 20.49 17.97 20.49H18.52C18.61 20.49 18.68 20.42 18.68 20.33V19.95C18.68 19.77 18.8 19.62 18.97 19.57C19.23 19.5 19.48 19.4 19.72 19.26C19.87 19.17 20.07 19.19 20.2 19.32L20.47 19.59C20.53 19.65 20.63 19.65 20.69 19.59L21.08 19.2C21.11 19.17 21.13 19.13 21.13 19.09C21.13 19.05 21.11 19.01 21.08 18.98L20.81 18.71C20.68 18.58 20.66 18.39 20.75 18.23C20.89 18 20.99 17.75 21.06 17.48C21.1 17.31 21.26 17.19 21.44 17.19H21.82C21.91 17.19 21.98 17.12 21.98 17.03V16.48C21.98 16.39 21.91 16.32 21.82 16.32H21.44C21.26 16.32 21.11 16.2 21.06 16.03C20.99 15.77 20.89 15.52 20.75 15.28C20.66 15.13 20.68 14.93 20.81 14.8L21.08 14.53C21.11 14.5 21.13 14.46 21.13 14.42C21.13 14.38 21.11 14.34 21.08 14.31L20.69 13.92C20.63 13.86 20.53 13.86 20.47 13.92L20.2 14.19C20.07 14.32 19.88 14.34 19.72 14.25C19.49 14.11 19.24 14.01 18.97 13.94C18.8 13.9 18.68 13.74 18.68 13.56V13.18C18.68 13.09 18.61 13.02 18.52 13.02H17.97C17.88 13.02 17.81 13.09 17.81 13.18V13.56C17.81 13.74 17.69 13.89 17.52 13.94C17.26 14.01 17.01 14.11 16.77 14.25C16.62 14.34 16.42 14.32 16.29 14.19L16.02 13.92C15.99 13.89 15.95 13.87 15.91 13.87C15.87 13.87 15.83 13.89 15.8 13.92L15.41 14.31C15.38 14.34 15.36 14.38 15.36 14.42C15.36 14.46 15.38 14.5 15.41 14.53L15.68 14.8C15.81 14.93 15.83 15.12 15.74 15.28C15.6 15.51 15.5 15.76 15.43 16.03C15.39 16.2 15.23 16.32 15.05 16.32H14.67C14.58 16.32 14.51 16.39 14.51 16.48V17.03C14.51 17.12 14.58 17.19 14.67 17.19H15.05C15.23 17.19 15.38 17.31 15.43 17.48C15.5 17.74 15.6 17.99 15.74 18.23C15.83 18.38 15.81 18.58 15.68 18.71L15.41 18.98C15.38 19.01 15.36 19.05 15.36 19.09C15.36 19.13 15.38 19.17 15.41 19.2L15.8 19.59C15.83 19.62 15.87 19.64 15.91 19.64C15.95 19.64 15.99 19.62 16.02 19.59L16.29 19.32C16.4 19.21 16.59 19.15 16.77 19.26Z" fill="black"/>
<path d="M18.24 18.66C17.19 18.66 16.34 17.81 16.34 16.76C16.34 15.71 17.19 14.86 18.24 14.86C19.29 14.86 20.14 15.71 20.14 16.76C20.15 17.81 19.29 18.66 18.24 18.66ZM18.24 15.37C17.47 15.37 16.85 15.99 16.85 16.76C16.85 17.53 17.47 18.15 18.24 18.15C19.01 18.15 19.63 17.53 19.63 16.76C19.63 15.99 19.01 15.37 18.24 15.37Z" fill="black"/>
<path d="M18.24 18.79C17.12 18.79 16.2 17.88 16.2 16.75C16.2 15.62 17.11 14.71 18.24 14.71C19.36 14.71 20.28 15.62 20.28 16.75C20.28 17.88 19.37 18.79 18.24 18.79ZM18.24 14.99C17.27 14.99 16.47 15.78 16.47 16.76C16.47 17.73 17.26 18.53 18.24 18.53C19.22 18.53 20.0099 17.74 20.0099 16.76C20.0099 15.78 19.22 14.99 18.24 14.99ZM18.24 18.28C17.4 18.28 16.72 17.6 16.72 16.75C16.72 15.91 17.4 15.22 18.24 15.22C19.08 15.22 19.77 15.9 19.77 16.75C19.77 17.6 19.08 18.28 18.24 18.28ZM18.24 15.5C17.55 15.5 16.99 16.06 16.99 16.75C16.99 17.44 17.55 18 18.24 18C18.93 18 19.49 17.44 19.49 16.75C19.5 16.06 18.94 15.5 18.24 15.5Z" fill="black"/>
<path d="M19.37 3.62V3.35C19.37 2.57 18.46 2 17.21 2H3.16C1.97 2 1 2.97 1 4.16V16.59C1 17.8 1.67 18.75 2.52 18.75H3.24C3.48 19.68 4.32 20.37 5.32 20.37H12.89C13.19 20.37 13.43 20.13 13.43 19.83C13.43 19.53 13.19 19.29 12.89 19.29H5.32C4.72 19.29 4.24 18.81 4.24 18.21V5.78C4.24 5.18 4.72 4.7 5.32 4.7H19.37C19.97 4.7 20.45 5.18 20.45 5.78V11.72C20.45 12.02 20.69 12.26 20.99 12.26C21.29 12.26 21.53 12.02 21.53 11.72V5.78C21.53 4.59 20.56 3.62 19.37 3.62ZM3.16 5.78V17.67H2.52C2.39 17.67 2.08 17.26 2.08 16.59V4.16C2.08 3.56 2.56 3.08 3.16 3.08H17.21C17.86 3.08 18.25 3.3 18.29 3.35V3.62H5.32C4.13 3.62 3.16 4.59 3.16 5.78Z" fill="black"/>
<path d="M12.35 6.32H5.87001C5.57001 6.32 5.33002 6.56 5.33002 6.86C5.33002 7.16 5.57001 7.4 5.87001 7.4H12.35C12.65 7.4 12.89 7.16 12.89 6.86C12.89 6.56 12.65 6.32 12.35 6.32Z" fill="black"/>
<path d="M12.35 9.56H5.87001C5.57001 9.56 5.33002 9.8 5.33002 10.1C5.33002 10.4 5.57001 10.64 5.87001 10.64H12.35C12.65 10.64 12.89 10.4 12.89 10.1C12.89 9.8 12.65 9.56 12.35 9.56Z" fill="black"/>
<path d="M12.89 13.34C12.89 13.04 12.65 12.8 12.35 12.8H5.87001C5.57001 12.8 5.33002 13.04 5.33002 13.34C5.33002 13.64 5.57001 13.88 5.87001 13.88H12.35C12.65 13.88 12.89 13.64 12.89 13.34Z" fill="black"/>
<path d="M5.86001 16.04C5.56001 16.04 5.32001 16.28 5.32001 16.58C5.32001 16.88 5.56001 17.12 5.86001 17.12H10.18C10.48 17.12 10.72 16.88 10.72 16.58C10.72 16.28 10.48 16.04 10.18 16.04H5.86001Z" fill="black"/>
<path d="M16.4 10.55C16.1 10.55 15.86 10.31 15.86 10.01V6.31C15.86 6.01 16.1 5.77 16.4 5.77C16.7 5.77 16.94 6.01 16.94 6.31V10.01C16.94 10.31 16.7 10.55 16.4 10.55Z" fill="black"/>
<path d="M14.84 9.56L16.4 12.26L17.96 9.56H14.84Z" fill="black"/>
</svg>
