<svg width="24" height="24" viewBox="0 0 24 24" fill="none" xmlns="http://www.w3.org/2000/svg">
<path d="M12.0662 13.2668C11.9762 13.2668 11.8762 13.2468 11.7962 13.2068L1.96623 8.92681C1.71623 8.81681 1.55623 8.57681 1.55623 8.31681C1.54623 8.04681 1.70623 7.80681 1.94623 7.68681L11.4762 3.06681C11.6462 2.98681 11.8462 2.97681 12.0262 3.04681L22.9262 7.31681C23.1862 7.41681 23.3562 7.66681 23.3562 7.93681C23.3662 8.21681 23.1962 8.46681 22.9462 8.57681L12.3562 13.2068C12.2562 13.2468 12.1562 13.2668 12.0662 13.2668ZM3.87622 8.26681L12.0662 11.8368L20.8662 7.98681L11.7862 4.42681L3.87622 8.26681Z" fill="black"/>
<path d="M12.0663 17.3768C11.9763 17.3768 11.8863 17.3568 11.7963 17.3168L1.41627 12.8668C1.06627 12.7168 0.906267 12.3168 1.05627 11.9668C1.20627 11.6168 1.60626 11.4568 1.95626 11.6068L12.0763 15.9468L22.9463 11.4968C23.2963 11.3568 23.6963 11.5168 23.8363 11.8668C23.9763 12.2168 23.8163 12.6168 23.4663 12.7568L12.3263 17.3168C12.2463 17.3568 12.1563 17.3768 12.0663 17.3768Z" fill="black"/>
<path d="M12.0662 21.4868C11.9662 21.4868 11.8663 21.4668 11.7763 21.4168L1.39625 16.5168C1.05625 16.3568 0.906245 15.9468 1.06624 15.6068C1.22624 15.2668 1.63625 15.1168 1.97625 15.2768L12.0763 20.0468L22.9262 15.2668C23.2762 15.1168 23.6763 15.2668 23.8263 15.6168C23.9763 15.9668 23.8262 16.3668 23.4762 16.5168L12.3362 21.4168C12.2562 21.4668 12.1562 21.4868 12.0662 21.4868Z" fill="black"/>
</svg>
