<svg width="24" height="24" viewBox="0 0 24 24" fill="none" xmlns="http://www.w3.org/2000/svg">
<path d="M11.1105 13.3828C11.0205 13.3828 10.9405 13.3628 10.8605 13.3328L1.88049 9.42277C1.66049 9.32277 1.51049 9.10277 1.50049 8.86277C1.50049 8.62277 1.63049 8.39277 1.85049 8.28277L10.5505 4.06277C10.7105 3.98277 10.8905 3.98277 11.0505 4.04277L21.0005 7.94277C21.2405 8.03277 21.3905 8.26277 21.4005 8.51277C21.4005 8.76277 21.2605 8.99277 21.0305 9.10277L11.3605 13.3328C11.2805 13.3628 11.1905 13.3828 11.1105 13.3828ZM3.62048 8.81277L11.1005 12.0728L19.1405 8.55277L10.8505 5.30277L3.62048 8.81277Z" fill="black"/>
<path d="M11.1105 17.1328C11.0305 17.1328 10.9405 17.1128 10.8605 17.0828L1.38048 13.0128C1.06048 12.8728 0.920479 12.5128 1.05048 12.1928C1.19048 11.8728 1.55047 11.7228 1.87047 11.8628L11.1105 15.8228L16.6305 13.5628C16.9505 13.4328 17.3205 13.5828 17.4505 13.9028C17.5805 14.2228 17.4305 14.5928 17.1105 14.7228L11.3405 17.0828C11.2705 17.1228 11.1905 17.1328 11.1105 17.1328Z" fill="black"/>
<path d="M11.1105 20.8928C11.0205 20.8928 10.9305 20.8728 10.8405 20.8328L1.36045 16.3528C1.05045 16.2028 0.910452 15.8328 1.06045 15.5228C1.21045 15.2128 1.58045 15.0828 1.89045 15.2228L11.1105 19.5828L16.6105 17.1628C16.9305 17.0228 17.3004 17.1628 17.4304 17.4828C17.5704 17.8028 17.4305 18.1728 17.1105 18.3028L11.3405 20.8428C11.2805 20.8728 11.2005 20.8928 11.1105 20.8928Z" fill="black"/>
<path d="M18.8805 11.9828C20.0805 11.9828 21.0705 12.3328 21.8405 13.0328C22.6105 13.7328 23.0005 14.6328 23.0005 15.7428C23.0005 16.8528 22.6105 17.7628 21.8405 18.4628C21.0705 19.1628 20.0805 19.5128 18.8805 19.5128H16.2305V11.9828H18.8805V11.9828ZM18.0605 18.1228H18.8805C19.5805 18.1228 20.1305 17.9128 20.5305 17.4828C20.9305 17.0528 21.1305 16.4728 21.1305 15.7528C21.1305 15.0328 20.9305 14.4528 20.5305 14.0228C20.1305 13.5928 19.5805 13.3828 18.8805 13.3828H18.0605V18.1228Z" fill="black"/>
</svg>
