<svg width="24" height="24" viewBox="0 0 24 24" fill="none" xmlns="http://www.w3.org/2000/svg">
<path d="M15.25 20.5625H5.125C4.50625 20.5625 4 20.0563 4 19.4375V3.125C4 2.50625 4.50625 2 5.125 2H15.385C15.8575 2 16.4313 2.25875 16.7463 2.61875L19.255 5.51C19.5475 5.8475 19.7612 6.42125 19.7612 6.87125V15.5C19.7612 15.815 19.5137 16.0625 19.1987 16.0625C18.8837 16.0625 18.625 15.815 18.625 15.5V6.87125C18.625 6.69125 18.5125 6.3875 18.3887 6.2525L15.88 3.36125C15.79 3.24875 15.52 3.125 15.3738 3.125H5.125V19.4375H15.25C15.565 19.4375 15.8125 19.685 15.8125 20C15.8125 20.315 15.565 20.5625 15.25 20.5625Z" fill="black"/>
<path d="M15.8125 14.9375H7.9375C7.31875 14.9375 6.8125 14.4313 6.8125 13.8125V7.0625C6.8125 6.44375 7.31875 5.9375 7.9375 5.9375H15.8125C16.4313 5.9375 16.9375 6.44375 16.9375 7.0625V13.8125C16.9375 14.4313 16.4313 14.9375 15.8125 14.9375ZM7.9375 7.0625V13.8125H15.8125V7.0625H7.9375Z" fill="black"/>
<path d="M16.375 9.875H7.375C7.06 9.875 6.8125 9.6275 6.8125 9.3125C6.8125 8.9975 7.06 8.75 7.375 8.75H16.375C16.69 8.75 16.9375 8.9975 16.9375 9.3125C16.9375 9.6275 16.69 9.875 16.375 9.875Z" fill="black"/>
<path d="M10.1875 14.9375C9.8725 14.9375 9.625 14.69 9.625 14.375V7.0625C9.625 6.7475 9.8725 6.5 10.1875 6.5C10.5025 6.5 10.75 6.7475 10.75 7.0625V14.375C10.75 14.69 10.5025 14.9375 10.1875 14.9375Z" fill="black"/>
<path d="M18.3438 22.25C16.33 22.25 14.6875 20.6075 14.6875 18.5938C14.6875 16.58 16.33 14.9375 18.3438 14.9375C20.3575 14.9375 22 16.58 22 18.5938C22 20.6075 20.3575 22.25 18.3438 22.25ZM18.3438 16.0625C16.9487 16.0625 15.8125 17.1987 15.8125 18.5938C15.8125 19.9888 16.9487 21.125 18.3438 21.125C19.7388 21.125 20.875 19.9888 20.875 18.5938C20.875 17.1987 19.7388 16.0625 18.3438 16.0625Z" fill="black"/>
<path d="M19.9075 18.2788V18.9538H16.5325V18.2788H19.9075Z" fill="black"/>
</svg>
