<svg width="24" height="24" viewBox="0 0 24 24" fill="none" xmlns="http://www.w3.org/2000/svg">
<path d="M11.8749 11.2535C9.04864 11.2535 6.74817 8.95305 6.74817 6.12676C6.74817 3.30047 9.04864 1 11.8749 1C14.7012 1 17.0017 3.30047 17.0017 6.12676C17.0017 8.95305 14.7012 11.2535 11.8749 11.2535ZM11.8749 2.46479C9.85615 2.46479 8.21296 4.10798 8.21296 6.12676C8.21296 8.14554 9.85615 9.78873 11.8749 9.78873C13.8937 9.78873 15.5369 8.14554 15.5369 6.12676C15.5369 4.10798 13.8937 2.46479 11.8749 2.46479Z" fill="black"/>
<path d="M21.875 22.3333H1.875V21.6009C1.875 16.8122 6.36327 12.9061 11.875 12.9061C17.3867 12.9061 21.875 16.8028 21.875 21.6009V22.3333ZM3.38674 20.8685H20.3727C19.9407 17.2254 16.2975 14.3803 11.8844 14.3803C7.47125 14.3803 3.81866 17.2254 3.38674 20.8685Z" fill="black"/>
</svg>
