<svg width="24" height="24" viewBox="0 0 24 24" fill="none" xmlns="http://www.w3.org/2000/svg">
<path d="M11.8864 9.69684C14.2832 9.69684 16.2348 7.74526 16.2348 5.34842C16.2348 2.95158 14.2832 1 11.8864 1C9.48954 1 7.53796 2.95158 7.53796 5.34842C7.53796 7.74526 9.48954 9.69684 11.8864 9.69684ZM11.8864 2.24105C13.6011 2.24105 14.9937 3.63368 14.9937 5.34842C14.9937 7.06316 13.6011 8.45579 11.8864 8.45579C10.1716 8.45579 8.77901 7.06316 8.77901 5.34842C8.77901 3.63368 10.1716 2.24105 11.8864 2.24105Z" fill="black"/>
<path d="M19.74 14.1589H18.7831L18.5084 13.8558C16.8884 12.1032 14.4821 11.0989 11.8958 11.0989C9.3 11.0989 6.8842 12.1126 5.27368 13.8653L5.00842 14.1589H4.24105C3.55895 14.1589 3 14.7179 3 15.4V20.9895C3 21.6716 3.55895 22.2305 4.24105 22.2305H19.759C20.4411 22.2305 21 21.6716 21 20.9895V15.4C20.9811 14.7179 20.4221 14.1589 19.74 14.1589ZM11.8863 12.34C13.8379 12.34 15.6758 12.9937 17.0305 14.1589H6.7421C8.09684 12.9937 9.93473 12.34 11.8863 12.34ZM19.74 20.98H4.2221V15.3905H19.74V20.98Z" fill="black"/>
<path d="M12.6063 20.0516C13.6295 20.0516 14.4726 19.2179 14.4726 18.1853C14.4726 17.1526 13.6389 16.3189 12.6063 16.3189C11.5831 16.3189 10.74 17.1526 10.74 18.1853C10.74 19.2179 11.5737 20.0516 12.6063 20.0516ZM12.6063 17.5695C12.9474 17.5695 13.2316 17.8442 13.2316 18.1947C13.2316 18.5358 12.9568 18.82 12.6063 18.82C12.2558 18.82 11.981 18.5453 11.981 18.1947C11.981 17.8537 12.2558 17.5695 12.6063 17.5695Z" fill="black"/>
</svg>
