<svg width="24" height="24" viewBox="0 0 24 24" fill="none" xmlns="http://www.w3.org/2000/svg">
<path d="M18.05 21.45H17.44C16.95 21.45 16.55 21.05 16.55 20.56V20.35C16.34 20.28 16.14 20.2 15.94 20.1L15.79 20.25C15.44 20.6 14.87 20.59 14.53 20.25L14.1 19.82C13.76 19.48 13.75 18.91 14.1 18.56L14.25 18.41C14.15 18.21 14.06 18.01 14 17.8H13.79C13.3 17.8 12.9 17.4 12.9 16.91V16.3C12.9 15.81 13.3 15.41 13.79 15.41H14C14.07 15.2 14.15 15 14.25 14.8L14.1 14.65C13.75 14.3 13.76 13.73 14.1 13.39L14.53 12.96C14.87 12.62 15.44 12.61 15.79 12.96L15.94 13.11C16.14 13.01 16.34 12.92 16.55 12.86V12.65C16.55 12.16 16.95 11.76 17.44 11.76H18.05C18.54 11.76 18.94 12.16 18.94 12.65V12.86C19.15 12.93 19.35 13.01 19.55 13.11L19.7 12.96C20.05 12.61 20.62 12.62 20.96 12.96L21.39 13.39C21.73 13.73 21.74 14.3 21.39 14.65L21.24 14.8C21.34 15 21.43 15.2 21.49 15.41H21.7C22.19 15.41 22.59 15.81 22.59 16.3V16.91C22.59 17.4 22.19 17.8 21.7 17.8H21.49C21.42 18.01 21.34 18.21 21.24 18.41L21.39 18.56C21.74 18.91 21.73 19.48 21.39 19.82L20.96 20.25C20.62 20.59 20.05 20.6 19.7 20.25L19.55 20.1C19.35 20.2 19.15 20.29 18.94 20.35V20.56C18.94 21.05 18.54 21.45 18.05 21.45ZM16.03 19.5C16.3 19.66 16.59 19.78 16.9 19.86C17.03 19.89 17.11 20.01 17.11 20.14V20.56C17.11 20.74 17.26 20.88 17.43 20.88H18.04C18.22 20.88 18.36 20.73 18.36 20.56V20.14C18.36 20.01 18.45 19.9 18.57 19.86C18.87 19.78 19.17 19.66 19.44 19.5C19.55 19.43 19.69 19.45 19.79 19.54L20.09 19.84C20.22 19.97 20.42 19.97 20.55 19.84L20.98 19.41C21.1 19.29 21.11 19.08 20.98 18.95L20.68 18.65C20.59 18.56 20.57 18.42 20.64 18.3C20.8 18.03 20.92 17.74 21 17.43C21.03 17.3 21.15 17.22 21.28 17.22H21.7C21.88 17.22 22.02 17.07 22.02 16.9V16.29C22.02 16.11 21.87 15.97 21.7 15.97H21.28C21.15 15.97 21.04 15.88 21 15.76C20.92 15.45 20.8 15.16 20.64 14.89C20.57 14.78 20.59 14.64 20.68 14.54L20.98 14.24C21.11 14.11 21.11 13.91 20.98 13.78L20.55 13.35C20.43 13.22 20.22 13.22 20.09 13.35L19.79 13.65C19.7 13.74 19.56 13.76 19.44 13.69C19.17 13.53 18.88 13.41 18.57 13.33C18.44 13.3 18.36 13.18 18.36 13.05V12.63C18.36 12.45 18.21 12.31 18.04 12.31H17.43C17.25 12.31 17.11 12.46 17.11 12.63V13.05C17.11 13.18 17.02 13.29 16.9 13.33C16.6 13.41 16.3 13.53 16.03 13.69C15.92 13.76 15.78 13.74 15.68 13.65L15.38 13.35C15.25 13.22 15.05 13.22 14.92 13.35L14.49 13.78C14.37 13.9 14.36 14.11 14.49 14.24L14.79 14.54C14.88 14.63 14.9 14.77 14.83 14.89C14.67 15.16 14.55 15.45 14.47 15.76C14.44 15.89 14.32 15.97 14.19 15.97H13.77C13.59 15.97 13.45 16.12 13.45 16.29V16.9C13.45 17.08 13.6 17.22 13.77 17.22H14.19C14.32 17.22 14.43 17.31 14.47 17.43C14.55 17.73 14.67 18.03 14.83 18.3C14.9 18.41 14.88 18.55 14.79 18.65L14.49 18.95C14.36 19.08 14.36 19.28 14.49 19.41L14.92 19.84C15.04 19.97 15.25 19.97 15.38 19.84L15.68 19.54C15.76 19.47 15.9 19.42 16.03 19.5Z" fill="black"/>
<path d="M18.05 21.6H17.44C16.86 21.6 16.4 21.13 16.4 20.56V20.46C16.25 20.41 16.11 20.35 15.97 20.28L15.9 20.35C15.7 20.55 15.44 20.66 15.16 20.66C14.88 20.66 14.62 20.55 14.42 20.35L13.99 19.92C13.79 19.72 13.69 19.46 13.68 19.19C13.68 18.91 13.79 18.65 13.99 18.45L14.06 18.38C13.99 18.24 13.93 18.1 13.88 17.95H13.78C13.2 17.95 12.74 17.48 12.74 16.91V16.3C12.74 15.72 13.21 15.26 13.78 15.26H13.88C13.93 15.11 13.99 14.97 14.06 14.83L13.99 14.76C13.79 14.56 13.68 14.3 13.68 14.02C13.68 13.74 13.79 13.48 13.99 13.28L14.42 12.85C14.62 12.65 14.88 12.54 15.16 12.54C15.44 12.54 15.7 12.65 15.9 12.85L15.97 12.92C16.11 12.85 16.25 12.79 16.4 12.74V12.64C16.4 12.06 16.87 11.6 17.44 11.6H18.05C18.63 11.6 19.09 12.07 19.09 12.64V12.74C19.24 12.79 19.38 12.85 19.52 12.92L19.59 12.85C19.98 12.45 20.67 12.46 21.07 12.85L21.5 13.28C21.7 13.48 21.81 13.74 21.81 14.02C21.81 14.3 21.7 14.56 21.5 14.76L21.43 14.83C21.5 14.97 21.56 15.11 21.61 15.26H21.71C22.29 15.26 22.75 15.73 22.75 16.3V16.91C22.75 17.49 22.28 17.95 21.71 17.95H21.61C21.56 18.1 21.5 18.24 21.43 18.38L21.5 18.45C21.7 18.65 21.81 18.91 21.81 19.19C21.81 19.47 21.7 19.73 21.5 19.93L21.07 20.36C20.87 20.56 20.61 20.67 20.33 20.67C20.05 20.67 19.79 20.56 19.59 20.36L19.52 20.29C19.38 20.36 19.24 20.42 19.09 20.47V20.57C19.09 21.13 18.63 21.6 18.05 21.6ZM15.91 19.91L16.01 19.96C16.2 20.06 16.4 20.14 16.6 20.2L16.7 20.23V20.55C16.7 20.96 17.03 21.29 17.44 21.29H18.05C18.46 21.29 18.79 20.96 18.79 20.55V20.23L18.89 20.2C19.09 20.14 19.29 20.05 19.48 19.96L19.58 19.91L19.8 20.13C19.94 20.27 20.13 20.35 20.32 20.35C20.52 20.35 20.71 20.27 20.85 20.13L21.28 19.7C21.42 19.56 21.5 19.37 21.5 19.17C21.5 18.97 21.42 18.79 21.28 18.65L21.06 18.43L21.11 18.33C21.21 18.14 21.29 17.95 21.35 17.74L21.38 17.64H21.7C22.11 17.64 22.44 17.31 22.44 16.9V16.29C22.44 15.88 22.11 15.55 21.7 15.55H21.38L21.35 15.45C21.29 15.25 21.2 15.05 21.11 14.86L21.06 14.76L21.28 14.54C21.42 14.4 21.5 14.21 21.5 14.02C21.5 13.82 21.42 13.63 21.28 13.49L20.85 13.06C20.57 12.78 20.08 12.78 19.8 13.06L19.58 13.28L19.48 13.23C19.29 13.13 19.1 13.05 18.89 12.99L18.79 12.96V12.64C18.79 12.23 18.46 11.9 18.05 11.9H17.44C17.03 11.9 16.7 12.23 16.7 12.64V12.96L16.6 12.99C16.4 13.05 16.2 13.14 16.01 13.23L15.91 13.28L15.69 13.06C15.41 12.78 14.92 12.78 14.64 13.06L14.21 13.49C14.07 13.63 13.99 13.82 13.99 14.02C13.99 14.22 14.07 14.4 14.21 14.54L14.43 14.76L14.38 14.86C14.28 15.05 14.2 15.24 14.14 15.45L14.11 15.55H13.79C13.38 15.55 13.05 15.88 13.05 16.29V16.9C13.05 17.31 13.38 17.64 13.79 17.64H14.11L14.14 17.74C14.2 17.94 14.29 18.14 14.38 18.33L14.43 18.43L14.21 18.65C14.07 18.79 13.99 18.98 13.99 19.18C13.99 19.38 14.07 19.56 14.21 19.7L14.64 20.13C14.78 20.27 14.97 20.35 15.17 20.35C15.37 20.35 15.55 20.27 15.69 20.13L15.91 19.91ZM18.05 21.03H17.44C17.18 21.03 16.97 20.82 16.97 20.56V20.14C16.97 20.08 16.93 20.03 16.87 20.01C16.55 19.93 16.25 19.8 15.96 19.63C15.87 19.58 15.8 19.65 15.8 19.65L15.5 19.95C15.41 20.04 15.29 20.09 15.16 20.09C15.03 20.09 14.91 20.04 14.82 19.95L14.39 19.52C14.3 19.43 14.25 19.31 14.25 19.18C14.25 19.05 14.3 18.93 14.39 18.84L14.69 18.54C14.73 18.5 14.74 18.43 14.71 18.38C14.54 18.1 14.42 17.79 14.33 17.47C14.31 17.41 14.26 17.37 14.2 17.37H13.78C13.52 17.37 13.31 17.16 13.31 16.9V16.29C13.31 16.03 13.52 15.82 13.78 15.82H14.2C14.26 15.82 14.31 15.78 14.33 15.72C14.41 15.4 14.54 15.1 14.71 14.81C14.74 14.76 14.73 14.69 14.69 14.65L14.39 14.35C14.3 14.26 14.25 14.14 14.25 14.01C14.25 13.88 14.3 13.77 14.39 13.68L14.82 13.25C14.91 13.16 15.03 13.11 15.16 13.11C15.29 13.11 15.41 13.16 15.5 13.25L15.8 13.55C15.84 13.59 15.91 13.6 15.96 13.57C16.24 13.4 16.55 13.28 16.87 13.19C16.93 13.17 16.97 13.12 16.97 13.06V12.64C16.97 12.38 17.18 12.17 17.44 12.17H18.05C18.31 12.17 18.52 12.38 18.52 12.64V13.06C18.52 13.12 18.56 13.17 18.62 13.19C18.94 13.27 19.24 13.4 19.53 13.57C19.58 13.6 19.65 13.59 19.69 13.55L19.99 13.25C20.17 13.07 20.48 13.07 20.66 13.25L21.09 13.68C21.18 13.77 21.23 13.89 21.23 14.02C21.23 14.15 21.18 14.27 21.09 14.36L20.79 14.66C20.75 14.7 20.74 14.77 20.77 14.82C20.94 15.1 21.06 15.41 21.15 15.73C21.17 15.79 21.22 15.83 21.28 15.83H21.7C21.96 15.83 22.17 16.04 22.17 16.3V16.91C22.17 17.17 21.96 17.38 21.7 17.38H21.28C21.22 17.38 21.17 17.42 21.15 17.48C21.07 17.8 20.94 18.1 20.77 18.39C20.74 18.44 20.75 18.51 20.79 18.55L21.09 18.85C21.18 18.94 21.23 19.06 21.23 19.19C21.23 19.32 21.18 19.44 21.09 19.53L20.66 19.96C20.48 20.14 20.17 20.14 19.99 19.96L19.69 19.66C19.65 19.62 19.58 19.61 19.53 19.64C19.24 19.81 18.94 19.94 18.62 20.02C18.56 20.04 18.52 20.09 18.52 20.15V20.57C18.53 20.81 18.31 21.03 18.05 21.03ZM16.11 19.37C16.37 19.52 16.65 19.64 16.94 19.71C17.13 19.76 17.27 19.93 17.27 20.13V20.55C17.27 20.65 17.35 20.72 17.44 20.72H18.05C18.15 20.72 18.22 20.64 18.22 20.55V20.13C18.22 19.93 18.35 19.76 18.55 19.71C18.84 19.64 19.12 19.52 19.38 19.37C19.55 19.27 19.77 19.3 19.91 19.44L20.21 19.74C20.28 19.81 20.39 19.81 20.46 19.74L20.89 19.31C20.92 19.28 20.94 19.23 20.94 19.19C20.94 19.14 20.92 19.1 20.89 19.07L20.59 18.77C20.45 18.63 20.42 18.41 20.52 18.24C20.67 17.98 20.79 17.7 20.86 17.41C20.91 17.22 21.08 17.08 21.28 17.08H21.7C21.8 17.08 21.87 17 21.87 16.91V16.3C21.87 16.2 21.79 16.13 21.7 16.13H21.28C21.08 16.13 20.91 16 20.86 15.8C20.78 15.51 20.67 15.23 20.52 14.97C20.42 14.8 20.45 14.58 20.59 14.44L20.89 14.14C20.92 14.11 20.94 14.06 20.94 14.02C20.94 13.97 20.92 13.93 20.89 13.9L20.46 13.47C20.39 13.4 20.28 13.4 20.21 13.47L19.91 13.77C19.77 13.91 19.55 13.94 19.38 13.84C19.12 13.69 18.84 13.57 18.55 13.5C18.36 13.45 18.22 13.28 18.22 13.08V12.66C18.22 12.56 18.14 12.49 18.05 12.49H17.44C17.34 12.49 17.27 12.57 17.27 12.66V13.08C17.27 13.28 17.14 13.45 16.94 13.5C16.65 13.58 16.37 13.69 16.11 13.84C15.94 13.94 15.72 13.91 15.58 13.77L15.28 13.47C15.25 13.44 15.2 13.42 15.16 13.42C15.11 13.42 15.07 13.44 15.04 13.47L14.61 13.9C14.58 13.93 14.56 13.98 14.56 14.02C14.56 14.07 14.58 14.11 14.61 14.14L14.91 14.44C15.05 14.58 15.08 14.8 14.98 14.97C14.83 15.23 14.71 15.51 14.64 15.8C14.59 15.99 14.42 16.13 14.22 16.13H13.8C13.7 16.13 13.63 16.21 13.63 16.3V16.91C13.63 17.01 13.71 17.08 13.8 17.08H14.22C14.42 17.08 14.59 17.21 14.64 17.41C14.72 17.7 14.83 17.98 14.98 18.24C15.08 18.41 15.05 18.63 14.91 18.77L14.61 19.07C14.58 19.1 14.56 19.15 14.56 19.19C14.56 19.24 14.58 19.28 14.61 19.31L15.04 19.74C15.07 19.77 15.12 19.79 15.16 19.79C15.21 19.79 15.25 19.77 15.28 19.74L15.58 19.44C15.7 19.32 15.91 19.25 16.11 19.37Z" fill="black"/>
<path d="M17.75 18.7C16.59 18.7 15.64 17.75 15.64 16.59C15.64 15.43 16.59 14.48 17.75 14.48C18.91 14.48 19.86 15.43 19.86 16.59C19.86 17.76 18.91 18.7 17.75 18.7ZM17.75 15.05C16.9 15.05 16.21 15.74 16.21 16.59C16.21 17.44 16.9 18.13 17.75 18.13C18.6 18.13 19.29 17.44 19.29 16.59C19.29 15.74 18.6 15.05 17.75 15.05Z" fill="black"/>
<path d="M17.75 18.85C16.5 18.85 15.49 17.84 15.49 16.59C15.49 15.34 16.5 14.33 17.75 14.33C19 14.33 20.01 15.34 20.01 16.59C20.01 17.84 18.99 18.85 17.75 18.85ZM17.75 14.63C16.67 14.63 15.79 15.51 15.79 16.59C15.79 17.67 16.67 18.55 17.75 18.55C18.83 18.55 19.71 17.67 19.71 16.59C19.71 15.51 18.83 14.63 17.75 14.63ZM17.75 18.29C16.82 18.29 16.06 17.53 16.06 16.6C16.06 15.67 16.82 14.91 17.75 14.91C18.68 14.91 19.44 15.67 19.44 16.6C19.44 17.53 18.68 18.29 17.75 18.29ZM17.75 15.2C16.98 15.2 16.36 15.83 16.36 16.59C16.36 17.35 16.98 17.98 17.75 17.98C18.52 17.98 19.14 17.35 19.14 16.59C19.14 15.83 18.51 15.2 17.75 15.2Z" fill="black"/>
<path d="M6.05001 10.86C7.20001 10.86 8.15001 11.19 8.89001 11.86C9.63001 12.53 10 13.4 10 14.46C10 15.53 9.63001 16.4 8.89001 17.07C8.15001 17.74 7.20001 18.08 6.05001 18.08H3.51001V10.86H6.05001ZM5.27001 16.75H6.05001C6.72001 16.75 7.25001 16.54 7.63001 16.13C8.01001 15.72 8.21001 15.17 8.21001 14.47C8.21001 13.77 8.02001 13.23 7.63001 12.81C7.25001 12.4 6.72001 12.19 6.05001 12.19H5.27001V16.75Z" fill="black"/>
<path d="M11.8 20.6H3.4C2.08 20.6 1 19.52 1 18.2V4.4C1 3.08 2.08 2 3.4 2H19C20.32 2 21.4 3.08 21.4 4.4V11C21.4 11.33 21.13 11.6 20.8 11.6C20.47 11.6 20.2 11.33 20.2 11V4.4C20.2 3.74 19.66 3.2 19 3.2H3.4C2.74 3.2 2.2 3.74 2.2 4.4V18.2C2.2 18.86 2.74 19.4 3.4 19.4H11.8C12.13 19.4 12.4 19.67 12.4 20C12.4 20.33 12.13 20.6 11.8 20.6Z" fill="black"/>
<path d="M11.2 6.2H4.00002C3.67002 6.2 3.40002 5.93 3.40002 5.6C3.40002 5.27 3.67002 5 4.00002 5H11.2C11.53 5 11.8 5.27 11.8 5.6C11.8 5.93 11.53 6.2 11.2 6.2Z" fill="black"/>
<path d="M11.2 9.2H4.00002C3.67002 9.2 3.40002 8.93 3.40002 8.6C3.40002 8.27 3.67002 8 4.00002 8H11.2C11.53 8 11.8 8.27 11.8 8.6C11.8 8.93 11.53 9.2 11.2 9.2Z" fill="black"/>
<path d="M15.7 9.7C15.37 9.7 15.1 9.43 15.1 9.1V5C15.1 4.67 15.37 4.4 15.7 4.4C16.03 4.4 16.3 4.67 16.3 5V9.1C16.3 9.44 16.03 9.7 15.7 9.7Z" fill="black"/>
<path d="M13.96 8.6L15.7 11.6L17.44 8.6H13.96Z" fill="black"/>
</svg>
