<svg width="24" height="24" viewBox="0 0 24 24" fill="none" xmlns="http://www.w3.org/2000/svg">
<path d="M10.3 11.54C7.67003 11.54 5.53003 9.4 5.53003 6.77C5.53003 4.14 7.67003 2 10.3 2C12.93 2 15.07 4.14 15.07 6.77C15.07 9.4 12.93 11.54 10.3 11.54ZM10.3 3.37C8.42003 3.37 6.89003 4.9 6.89003 6.78C6.89003 8.66 8.42003 10.19 10.3 10.19C12.18 10.19 13.71 8.66 13.71 6.78C13.71 4.9 12.18 3.37 10.3 3.37Z" fill="black"/>
<path d="M19.59 21.84H1V21.16C1 16.71 5.17 13.08 10.3 13.08C15.43 13.08 19.6 16.7 19.6 21.16V21.84H19.59ZM2.39999 20.47H18.19C17.79 17.09 14.4 14.43 10.3 14.43C6.19 14.44 2.80999 17.09 2.39999 20.47Z" fill="black"/>
<path d="M20.46 7.21V9.86H23V11H20.46V13.67H19.27V11H16.73V9.86H19.27V7.21H20.46Z" fill="black"/>
</svg>
