<svg width="24" height="24" viewBox="0 0 24 24" fill="none" xmlns="http://www.w3.org/2000/svg">
<path d="M20.62 23.1449H3.38C2.62 23.1449 2 22.5249 2 21.7649V10.7349C2 10.1649 2.29 9.46495 2.69 9.07495L10.34 1.42495C10.86 0.904946 11.71 0.854946 12.28 1.31495L21.2 8.38495C21.66 8.75495 22 9.45495 22 10.0449V21.7649C22 22.5249 21.38 23.1449 20.62 23.1449ZM11.37 2.38495C11.34 2.38495 11.32 2.39495 11.31 2.40495L3.66 10.0449C3.52 10.1849 3.37 10.5349 3.37 10.7349V21.7649H20.61V10.0449C20.61 9.87495 20.46 9.57495 20.33 9.46495L11.41 2.39495C11.41 2.38495 11.39 2.38495 11.37 2.38495Z" fill="black"/>
<path d="M16.14 22.8049H14.76V12.4549H9.23999V22.7949H7.85999V12.4549C7.85999 11.6949 8.47999 11.0749 9.23999 11.0749H14.76C15.52 11.0749 16.14 11.6949 16.14 12.4549V22.8049V22.8049Z" fill="black"/>
</svg>
