<svg width="24" height="24" viewBox="0 0 24 24" fill="none" xmlns="http://www.w3.org/2000/svg">
<path d="M19.85 20.86H6.14C5.51 20.86 5 20.35 5 19.72V3.14C5 2.51 5.51 2 6.14 2H16.56C17.04 2 17.62 2.26 17.94 2.63L20.49 5.57C20.79 5.91 21 6.49 21 6.95V19.71C20.99 20.35 20.48 20.86 19.85 20.86ZM6.13 3.14V19.71H19.84V6.95C19.84 6.77 19.72 6.45 19.61 6.32L17.06 3.38C16.96 3.27 16.69 3.15 16.55 3.15H6.13V3.14Z" fill="black"/>
<path d="M17.56 10.57H8.42C8.1 10.57 7.85001 10.31 7.85001 10C7.85001 9.68 8.11 9.43 8.42 9.43H17.56C17.88 9.43 18.13 9.69 18.13 10C18.13 10.32 17.88 10.57 17.56 10.57Z" fill="black"/>
<path d="M15.02 6.57H8.42C8.1 6.57 7.85001 6.31 7.85001 6C7.85001 5.68 8.11 5.43 8.42 5.43H15.02C15.34 5.43 15.59 5.69 15.59 6C15.59 6.32 15.34 6.57 15.02 6.57Z" fill="black"/>
<path d="M17.56 14H8.42C8.1 14 7.85001 13.74 7.85001 13.43C7.85001 13.12 8.11 12.86 8.42 12.86H17.56C17.88 12.86 18.13 13.12 18.13 13.43C18.13 13.74 17.88 14 17.56 14Z" fill="black"/>
<path d="M17.56 18H8.42C8.1 18 7.85001 17.74 7.85001 17.43C7.85001 17.12 8.11 16.86 8.42 16.86H17.56C17.88 16.86 18.13 17.12 18.13 17.43C18.13 17.74 17.88 18 17.56 18Z" fill="black"/>
</svg>
