<svg width="24" height="24" viewBox="0 0 24 24" fill="none" xmlns="http://www.w3.org/2000/svg">
<path d="M11.37 23L10.91 22.5C10.59 22.15 3 13.84 3 9.37C3 4.76 6.75 1 11.37 1C15.99 1 19.74 4.76 19.74 9.37C19.74 13.84 12.15 22.15 11.83 22.5L11.37 23ZM11.37 2.24C7.44 2.24 4.24 5.44 4.24 9.37C4.24 12.46 9.02 18.5 11.37 21.16C13.72 18.51 18.5 12.47 18.5 9.37C18.5 5.44 15.3 2.24 11.37 2.24Z" fill="black"/>
<path d="M11.68 13.4C9.62996 13.4 7.95996 11.73 7.95996 9.68C7.95996 7.63 9.62996 5.96 11.68 5.96C13.73 5.96 15.4 7.63 15.4 9.68C15.4 11.73 13.73 13.4 11.68 13.4ZM11.68 7.2C10.31 7.2 9.19996 8.31 9.19996 9.68C9.19996 11.05 10.31 12.16 11.68 12.16C13.05 12.16 14.16 11.05 14.16 9.68C14.16 8.31 13.05 7.2 11.68 7.2Z" fill="black"/>
</svg>
