<svg width="22" height="19" viewBox="0 0 22 19" fill="none" xmlns="http://www.w3.org/2000/svg">
<path d="M18.3258 12.3377H9.15208C8.56615 12.3377 7.99205 11.9175 7.82042 11.3553L4.98545 2.1283C4.94994 2.02769 4.79606 1.89156 4.69544 1.87381L0.499215 1.17542C0.173697 1.12215 -0.0452878 0.814391 0.00797881 0.494792C0.0612454 0.175192 0.36309 -0.0497114 0.688608 0.00947374L4.89075 0.707858C5.42934 0.796636 5.95608 1.25828 6.11588 1.77911L8.95677 11.0061C8.97452 11.0712 9.0929 11.154 9.158 11.154H18.3317C18.4086 11.154 18.5448 11.0593 18.5744 10.9883L20.4209 5.96942C20.5334 5.66165 20.8707 5.50185 21.1785 5.62022C21.4863 5.73268 21.6401 6.07595 21.5277 6.37779L19.6811 11.3967C19.4799 11.9294 18.8999 12.3377 18.3258 12.3377Z" fill="black"/>
<path d="M9.3591 18.3095C7.93273 18.3095 6.77271 17.1495 6.77271 15.7231C6.77271 14.2967 7.93273 13.1367 9.3591 13.1367C10.7855 13.1367 11.9455 14.2967 11.9455 15.7231C11.9455 17.1495 10.7855 18.3095 9.3591 18.3095ZM9.3591 14.3263C8.58969 14.3263 7.95641 14.9537 7.95641 15.729C7.95641 16.4984 8.58377 17.1317 9.3591 17.1317C10.1285 17.1317 10.7618 16.5044 10.7618 15.729C10.7559 14.9537 10.1285 14.3263 9.3591 14.3263Z" fill="black"/>
<path d="M17.3256 18.3095C15.8993 18.3095 14.7393 17.1495 14.7393 15.7231C14.7393 14.2967 15.8993 13.1367 17.3256 13.1367C18.752 13.1367 19.912 14.2967 19.912 15.7231C19.912 17.1495 18.752 18.3095 17.3256 18.3095ZM17.3256 14.3263C16.5562 14.3263 15.923 14.9537 15.923 15.729C15.923 16.4984 16.5503 17.1317 17.3256 17.1317C18.0951 17.1317 18.7283 16.5044 18.7283 15.729C18.7283 14.9537 18.0951 14.3263 17.3256 14.3263Z" fill="black"/>
<path d="M11.4959 11.734L10.3181 11.6038L10.7975 7.20639C10.8271 6.73291 11.2473 6.34229 11.7445 6.34229L16.0532 6.3482C16.5562 6.3482 16.9705 6.74474 16.9942 7.24782L17.4144 11.6098L16.2366 11.7222L15.8342 7.53191L11.9516 7.52599L11.4959 11.734ZM15.8164 7.33659C15.8164 7.34251 15.8164 7.34843 15.8164 7.35435V7.33659ZM11.9812 7.31292V7.33659C11.9753 7.32476 11.9753 7.31884 11.9812 7.31292Z" fill="#0D111B"/>
</svg>
