<svg width="24" height="24" viewBox="0 0 24 24" fill="none" xmlns="http://www.w3.org/2000/svg">
<path d="M19.6903 15.5898H10.3339C9.73567 15.5898 9.14721 15.1583 8.98048 14.5894L6.08726 5.17417C6.05783 5.07609 5.8911 4.92898 5.79303 4.91917L1.50712 4.20322C1.17366 4.14438 0.957894 3.84034 1.00693 3.50688C1.06578 3.18324 1.36982 2.95766 1.70328 3.0067L5.98917 3.72265C6.5384 3.81092 7.07781 4.28168 7.24454 4.8211L10.1378 14.2364C10.1574 14.2952 10.2751 14.3835 10.3437 14.3835H19.7001C19.7786 14.3835 19.9159 14.2854 19.9453 14.2167L21.8284 9.09719C21.9461 8.78335 22.2893 8.62643 22.6032 8.73431C22.917 8.852 23.0739 9.19527 22.9661 9.50911L21.083 14.6287C20.8672 15.1779 20.269 15.5898 19.6903 15.5898Z" fill="black"/>
<path d="M10.5399 21.6901C9.08836 21.6901 7.90164 20.5034 7.90164 19.0519C7.90164 17.6003 9.08836 16.4136 10.5399 16.4136C11.9914 16.4136 13.1781 17.6003 13.1781 19.0519C13.1683 20.5034 11.9914 21.6901 10.5399 21.6901ZM10.5399 17.6298C9.75527 17.6298 9.10798 18.2673 9.10798 19.0617C9.10798 19.8463 9.74547 20.4936 10.5399 20.4936C11.3245 20.4936 11.9718 19.8561 11.9718 19.0617C11.962 18.2673 11.3245 17.6298 10.5399 17.6298Z" fill="black"/>
<path d="M18.6605 21.6901C17.209 21.6901 16.0223 20.5034 16.0223 19.0519C16.0223 17.6003 17.209 16.4136 18.6605 16.4136C20.1121 16.4136 21.2988 17.6003 21.2988 19.0519C21.2988 20.5034 20.1219 21.6901 18.6605 21.6901ZM18.6605 17.6298C17.8759 17.6298 17.2286 18.2673 17.2286 19.0617C17.2286 19.8463 17.8661 20.4936 18.6605 20.4936C19.4451 20.4936 20.0924 19.8561 20.0924 19.0617C20.0924 18.2673 19.455 17.6298 18.6605 17.6298Z" fill="black"/>
</svg>
