<svg width="24" height="24" viewBox="0 0 24 24" fill="none" xmlns="http://www.w3.org/2000/svg">
<path d="M20.38 4H3.62C2.18 4 1 5.17 1 6.62V16.05C1 17.49 2.17 18.67 3.62 18.67H20.38C21.82 18.67 23 17.5 23 16.05V6.62C23 5.17 21.83 4 20.38 4ZM3.62 5.04H20.38C21.25 5.04 21.95 5.74 21.95 6.61H2.04999C2.04999 5.75 2.75 5.04 3.62 5.04ZM2.04999 7.66H21.95V9.23H2.04999V7.66ZM20.38 17.62H3.62C2.75 17.62 2.04999 16.92 2.04999 16.05V10.29H21.95V16.05C21.95 16.91 21.25 17.62 20.38 17.62Z" fill="black"/>
<path d="M13.57 12.38H3.61996C3.32996 12.38 3.09998 12.61 3.09998 12.9C3.09998 13.19 3.32996 13.42 3.61996 13.42H13.57C13.86 13.42 14.09 13.19 14.09 12.9C14.1 12.61 13.86 12.38 13.57 12.38Z" fill="black"/>
<path d="M13.57 14.47H3.61996C3.32996 14.47 3.09998 14.7 3.09998 14.99C3.09998 15.28 3.32996 15.51 3.61996 15.51H13.57C13.86 15.51 14.09 15.28 14.09 14.99C14.1 14.71 13.86 14.47 13.57 14.47Z" fill="black"/>
<path d="M16.7399 11.85L16.1899 11.88V15.49L16.2199 16.04H19.8299L20.3799 16.01V12.4L20.3499 11.85H16.7399ZM19.3299 15H17.2299V12.9H19.3299V15Z" fill="black"/>
</svg>
