<svg width="24" height="24" viewBox="0 0 24 24" fill="none" xmlns="http://www.w3.org/2000/svg">
<path d="M21.4276 17.0526C21.3661 17.0526 21.3047 17.0526 21.2432 17.0438L2.39675 14.857C1.97521 14.8043 1.60636 14.6023 1.34289 14.2686C1.07943 13.9349 0.965261 13.5221 1.00917 13.1094C1.10578 12.24 1.89617 11.6164 2.75682 11.7218L21.6033 13.9086C22.0248 13.9612 22.3936 14.1632 22.6571 14.497C22.9206 14.8307 23.0347 15.2434 22.9908 15.6562C22.903 16.4642 22.218 17.0526 21.4276 17.0526ZM2.58117 12.7669C2.31771 12.7669 2.08937 12.9689 2.05424 13.2323C2.03668 13.3728 2.08059 13.5046 2.16841 13.6187C2.25623 13.7329 2.37918 13.8032 2.5197 13.812L21.3661 15.9987C21.6472 16.025 21.9194 15.8231 21.9545 15.5332C21.9721 15.3927 21.9282 15.261 21.8404 15.1468C21.7525 15.0327 21.6296 14.9624 21.4891 14.9536L2.64265 12.7669C2.62508 12.7669 2.59874 12.7669 2.58117 12.7669Z" fill="black"/>
<path d="M13.6291 20.4425H10.3797C10.0548 20.4425 9.78251 20.3019 9.62444 20.0473C9.46636 19.7926 9.47514 19.4852 9.63322 19.1954L11.2491 16.1743C11.4072 15.8758 11.6707 15.7089 11.9605 15.7001C12.2415 15.6913 12.5138 15.867 12.6806 16.1568L14.358 19.1866C14.5161 19.4764 14.5249 19.7838 14.3756 20.0385C14.235 20.3019 13.954 20.4425 13.6291 20.4425ZM10.731 19.3886H13.2602L11.9693 17.0701L10.731 19.3886ZM12.2152 16.4202L11.7497 16.6749L12.2152 16.4202Z" fill="black"/>
<path d="M21.7262 6.40862C21.6911 6.3735 21.6472 6.35593 21.5945 6.35593H20.646C20.5845 6.04856 20.4616 5.77631 20.2859 5.55676H21.5857C21.6384 5.55676 21.6823 5.53919 21.7174 5.50407C21.7525 5.46894 21.7701 5.42503 21.7701 5.37233V4.81028C21.7701 4.75759 21.7525 4.71367 21.7174 4.67855C21.6823 4.6522 21.6384 4.63464 21.5857 4.63464H16.9575C16.9048 4.63464 16.8609 4.6522 16.8258 4.68733C16.7906 4.72246 16.7731 4.76637 16.7731 4.81906V5.55676C16.7731 5.60945 16.7906 5.64458 16.8258 5.67971C16.8609 5.71484 16.9048 5.7324 16.9487 5.7324H17.7567C18.5383 5.7324 19.0389 5.94317 19.2496 6.36471H16.9487C16.896 6.36471 16.8521 6.38228 16.817 6.41741C16.7819 6.45254 16.7643 6.49645 16.7643 6.54914V7.11998C16.7643 7.17267 16.7819 7.21658 16.817 7.25171C16.8521 7.28684 16.896 7.3044 16.9487 7.3044H19.3287C19.2496 7.61178 19.0564 7.84011 18.7578 7.99819C18.4593 8.15627 18.0641 8.23531 17.5723 8.23531H16.9487C16.896 8.23531 16.8609 8.25287 16.8258 8.288C16.7906 8.32313 16.7731 8.36704 16.7731 8.41095V9.11352C16.7731 9.16621 16.7906 9.20134 16.8258 9.23647C17.5371 9.99173 18.4593 11.0544 19.6009 12.4156C19.6361 12.4595 19.68 12.4859 19.7414 12.4859H20.8304C20.9095 12.4859 20.9622 12.4507 20.9885 12.3893C21.0236 12.319 21.0148 12.2575 20.9622 12.196C19.882 10.8699 19.0301 9.86878 18.4066 9.21012C19.0389 9.13987 19.5482 8.92909 19.9434 8.59537C20.3386 8.26165 20.5757 7.83133 20.6636 7.29562H21.5945C21.6472 7.29562 21.6911 7.27805 21.7262 7.24293C21.7613 7.2078 21.7789 7.16389 21.7789 7.11119V6.54036C21.7789 6.48766 21.7613 6.44375 21.7262 6.40862Z" fill="black"/>
<path d="M8.15782 7.62056C8.15782 8.11236 7.9734 8.55146 7.61333 8.92031C7.24448 9.29794 6.75268 9.5175 6.12037 9.57019V10.343H5.57588V9.57897C4.96113 9.53506 4.46933 9.35064 4.0917 9.0257C3.71407 8.70076 3.52964 8.27922 3.52964 7.74351H4.69766C4.74157 8.288 5.04017 8.60416 5.57588 8.6832V6.57549C4.99626 6.44375 4.58349 6.30324 4.34638 6.16273C4.05657 5.99587 3.86336 5.82022 3.74919 5.62702C3.5999 5.35477 3.52086 5.05618 3.52086 4.70489C3.52086 4.1604 3.70528 3.7213 4.08291 3.37001C4.46055 3.02751 4.95234 2.82552 5.56709 2.77283V2H6.11159V2.77283C6.68242 2.81674 7.14788 2.99238 7.49916 3.29097C7.85045 3.59835 8.04365 4.01111 8.08756 4.5556H6.91954C6.90198 4.35361 6.82294 4.16918 6.67364 4.01111C6.53313 3.85303 6.33992 3.74764 6.11159 3.69495V5.76753C6.71755 5.90804 7.12153 6.03978 7.3323 6.16273C7.63089 6.34715 7.8241 6.51401 7.89436 6.65453C8.07 6.95312 8.15782 7.27806 8.15782 7.62056ZM4.88209 3.9672C4.71523 4.13406 4.6274 4.35361 4.6274 4.63464C4.6274 4.91566 4.70645 5.12644 4.87331 5.27573C5.04017 5.42503 5.2685 5.5392 5.56709 5.62702V3.6686C5.27728 3.70373 5.04895 3.80912 4.88209 3.9672ZM6.80537 8.34069C6.97223 8.15627 7.05127 7.93671 7.05127 7.68203C7.05127 7.41857 6.97223 7.21658 6.80537 7.07607C6.63851 6.92677 6.41018 6.8126 6.11159 6.72478V8.69198C6.41018 8.63928 6.63851 8.52512 6.80537 8.34069Z" fill="black"/>
</svg>
