<svg width="24" height="24" viewBox="0 0 24 24" fill="none" xmlns="http://www.w3.org/2000/svg">
<path d="M21.7138 22.3325H7.09104C6.38863 22.3325 5.82306 21.7578 5.82306 21.0645V10.8842C5.82306 10.4372 5.97813 9.78955 6.18794 9.38817L8.55058 4.79975C8.81512 4.27979 9.46279 3.88753 10.0466 3.88753H18.1927C18.7674 3.88753 19.4059 4.2433 19.7069 4.72677L22.5713 9.36993C22.8176 9.76218 23 10.419 23 10.8842V21.0554C22.9818 21.7578 22.4071 22.3325 21.7138 22.3325ZM10.0284 5.16463C9.9189 5.16463 9.71821 5.28322 9.66348 5.38356L7.30084 9.97199C7.19138 10.1909 7.08191 10.6379 7.08191 10.8842V21.0554H21.7047V10.8842C21.7047 10.6562 21.5861 10.2365 21.4675 10.045L18.6032 5.40181C18.5393 5.29234 18.3021 5.16463 18.1744 5.16463H10.0284Z" fill="black"/>
<path d="M7.611 22.3325H3.27799C2.57558 22.3325 2.01001 21.7578 2.01001 21.0645V10.8842C2.01001 10.4281 2.17421 9.78043 2.40226 9.38817L4.96558 4.7815C5.24836 4.27979 5.88691 3.89666 6.46161 3.89666H10.2747V5.16463H6.46161C6.34302 5.16463 6.13321 5.29234 6.06935 5.39268L3.50604 9.99936C3.38745 10.2092 3.27799 10.6379 3.27799 10.8842V21.0554H7.611V22.3325V22.3325Z" fill="black"/>
<path d="M22.3432 9.61623H6.45245V10.8842H22.3432V9.61623Z" fill="black"/>
<path d="M19.8073 16.6038H13.4492V19.1488H19.8073V16.6038Z" fill="black"/>
</svg>
