<svg width="20" height="24" viewBox="0 0 24 24" fill="none" xmlns="http://www.w3.org/2000/svg">
<path d="M22.45 7.53L18.74 1.96C18.37 1.41 17.61 1 16.93 1H6.31C5.62 1 4.85 1.45 4.52 2.05L1.46 7.55C1.2 8.03 1 8.8 1 9.34V21.48C1 22.32 1.68 23 2.52 23H21.49C22.33 23 23.01 22.32 23.01 21.48V9.34C23 8.78 22.76 8 22.45 7.53ZM5.85 2.79C5.92 2.67 6.17 2.52 6.31 2.52H16.93C17.09 2.52 17.39 2.68 17.48 2.81L20.82 7.83H3.05L5.85 2.79ZM21.48 21.48H2.52V9.34H21.49V21.48H21.48Z" fill="black"/>
<path d="M19.21 16.17H11.62V19.2H19.21V16.17Z" fill="black"/>
</svg>
