<svg width="24" height="24" viewBox="0 0 24 24" fill="none" xmlns="http://www.w3.org/2000/svg">
<path d="M14.431 21.8003H4.19973C3.53748 21.8003 3 21.2628 3 20.6005V3.19973C3 2.53748 3.53748 2 4.19973 2H15.1412C15.6499 2 16.2546 2.27834 16.5905 2.66225L19.2587 5.75274C19.5754 6.11746 19.7962 6.72212 19.7962 7.20201V14.0069C19.7962 14.3428 19.5274 14.6019 19.2011 14.6019C18.8748 14.6019 18.606 14.3332 18.606 14.0069V7.20201C18.606 7.01965 18.4813 6.68373 18.3565 6.53976L15.6883 3.44927C15.5827 3.33409 15.3044 3.19973 15.1508 3.19973H4.19973V20.591H14.431C14.7669 20.591 15.0261 20.8597 15.0261 21.186C15.0261 21.5123 14.7573 21.8003 14.431 21.8003Z" fill="black"/>
<path d="M16.197 11.0027H6.59918C6.26325 11.0027 6.00411 10.734 6.00411 10.4077C6.00411 10.0813 6.26325 9.80301 6.59918 9.80301H16.197C16.5329 9.80301 16.792 10.0718 16.792 10.3981C16.792 10.7244 16.5329 11.0027 16.197 11.0027Z" fill="black"/>
<path d="M13.5288 6.7989H6.59918C6.26325 6.7989 6.00411 6.53017 6.00411 6.20384C6.00411 5.87751 6.26325 5.59918 6.59918 5.59918H13.5288C13.8647 5.59918 14.1239 5.86792 14.1239 6.19424C14.1239 6.52057 13.8647 6.7989 13.5288 6.7989Z" fill="black"/>
<path d="M13.1929 14.6019H6.59918C6.26325 14.6019 6.00411 14.3332 6.00411 14.0069C6.00411 13.6805 6.27285 13.4118 6.59918 13.4118H13.2025C13.5384 13.4118 13.7975 13.6805 13.7975 14.0069C13.7975 14.3332 13.5288 14.6019 13.1929 14.6019Z" fill="black"/>
<path d="M17.3967 23C14.7477 23 12.5978 20.8501 12.5978 18.2011C12.5978 15.5521 14.7477 13.4022 17.3967 13.4022C20.0457 13.4022 22.1956 15.5521 22.1956 18.2011C22.1956 20.8501 20.0457 23 17.3967 23ZM17.3967 14.6019C15.41 14.6019 13.7975 16.2143 13.7975 18.2011C13.7975 20.1878 15.41 21.8003 17.3967 21.8003C19.3835 21.8003 20.9959 20.1878 20.9959 18.2011C20.9959 16.2143 19.3835 14.6019 17.3967 14.6019Z" fill="black"/>
<path d="M16.7249 20.3318C16.4369 20.3318 16.1586 20.2166 15.9474 20.0055L14.575 18.633C14.3446 18.4027 14.3446 18.0187 14.575 17.7884C14.8053 17.558 15.1892 17.558 15.4196 17.7884L16.7057 19.0745L18.702 16.08C18.8844 15.8016 19.2587 15.7249 19.537 15.9168C19.8154 16.0992 19.8825 16.4735 19.7002 16.7518L17.6367 19.8519C17.4447 20.1303 17.1568 20.3126 16.84 20.3414C16.792 20.3318 16.7633 20.3318 16.7249 20.3318Z" fill="black"/>
</svg>
