<svg width="24" height="24" viewBox="0 0 24 24" fill="none" xmlns="http://www.w3.org/2000/svg">
<path d="M12.63 21.31H4.36C3.06 21.31 2 20.25 2 18.95V5.36C2 4.06 3.06 3 4.36 3H19.72C21.02 3 22.08 4.06 22.08 5.36V11.86C22.08 12.19 21.82 12.45 21.49 12.45C21.16 12.45 20.9 12.19 20.9 11.86V5.36C20.9 4.71 20.37 4.18 19.72 4.18H4.36C3.71 4.18 3.18 4.71 3.18 5.36V18.94C3.18 19.59 3.71 20.12 4.36 20.12H12.63C12.96 20.12 13.22 20.38 13.22 20.71C13.22 21.05 12.96 21.31 12.63 21.31Z" fill="black"/>
<path d="M12.04 7.14H4.94998C4.61998 7.14 4.35999 6.88 4.35999 6.55C4.35999 6.22 4.61998 5.96 4.94998 5.96H12.04C12.37 5.96 12.63 6.22 12.63 6.55C12.63 6.87 12.37 7.14 12.04 7.14Z" fill="black"/>
<path d="M12.04 10.68H4.94998C4.61998 10.68 4.35999 10.42 4.35999 10.09C4.35999 9.76 4.61998 9.5 4.94998 9.5H12.04C12.37 9.5 12.63 9.76 12.63 10.09C12.63 10.41 12.37 10.68 12.04 10.68Z" fill="black"/>
<path d="M12.04 14.22H4.94998C4.61998 14.22 4.35999 13.96 4.35999 13.63C4.35999 13.3 4.61998 13.04 4.94998 13.04H12.04C12.37 13.04 12.63 13.3 12.63 13.63C12.63 13.96 12.37 14.22 12.04 14.22Z" fill="black"/>
<path d="M9.67999 17.77H4.95999C4.62999 17.77 4.37 17.51 4.37 17.18C4.37 16.85 4.62999 16.59 4.95999 16.59H9.67999C10.01 16.59 10.27 16.85 10.27 17.18C10.27 17.51 9.99999 17.77 9.67999 17.77Z" fill="black"/>
<path d="M16.47 10.58C16.14 10.58 15.88 10.32 15.88 9.99V5.95C15.88 5.62 16.14 5.36 16.47 5.36C16.8 5.36 17.06 5.62 17.06 5.95V9.99C17.06 10.32 16.8 10.58 16.47 10.58Z" fill="black"/>
<path d="M14.76 9.49L16.47 12.45L18.18 9.49H14.76Z" fill="black"/>
<path d="M19.37 22.73H18.77C18.28 22.73 17.89 22.34 17.89 21.85V21.65C17.68 21.58 17.48 21.5 17.29 21.4L17.15 21.54C16.8 21.89 16.24 21.88 15.91 21.54L15.49 21.12C15.15 20.78 15.14 20.22 15.49 19.88L15.63 19.74C15.53 19.55 15.45 19.35 15.38 19.14H15.18C14.69 19.14 14.3 18.75 14.3 18.26V17.66C14.3 17.17 14.69 16.78 15.18 16.78H15.38C15.45 16.57 15.53 16.37 15.63 16.18L15.49 16.04C15.14 15.69 15.15 15.13 15.49 14.8L15.91 14.38C16.25 14.04 16.81 14.03 17.15 14.38L17.29 14.52C17.48 14.42 17.68 14.34 17.89 14.27V14.07C17.89 13.58 18.28 13.19 18.77 13.19H19.37C19.86 13.19 20.25 13.58 20.25 14.07V14.27C20.46 14.34 20.66 14.42 20.85 14.52L20.99 14.38C21.34 14.03 21.9 14.04 22.23 14.38L22.65 14.8C22.99 15.14 23 15.7 22.65 16.04L22.51 16.18C22.61 16.37 22.69 16.57 22.76 16.78H22.96C23.45 16.78 23.84 17.17 23.84 17.66V18.26C23.84 18.75 23.45 19.14 22.96 19.14H22.76C22.69 19.35 22.61 19.55 22.51 19.74L22.65 19.88C23 20.23 22.99 20.79 22.65 21.12L22.23 21.54C21.89 21.88 21.33 21.89 20.99 21.54L20.85 21.4C20.66 21.5 20.46 21.58 20.25 21.65V21.85C20.25 22.34 19.86 22.73 19.37 22.73ZM17.39 20.81C17.66 20.97 17.95 21.09 18.25 21.16C18.37 21.19 18.46 21.3 18.46 21.43V21.84C18.46 22.02 18.6 22.16 18.78 22.16H19.38C19.56 22.16 19.7 22.02 19.7 21.84V21.44C19.7 21.31 19.79 21.2 19.91 21.17C20.21 21.09 20.5 20.97 20.77 20.82C20.88 20.75 21.02 20.77 21.11 20.86L21.4 21.15C21.53 21.28 21.73 21.27 21.85 21.15L22.27 20.73C22.39 20.61 22.4 20.4 22.27 20.28L21.98 19.99C21.89 19.9 21.87 19.76 21.94 19.65C22.1 19.38 22.22 19.09 22.3 18.79C22.33 18.67 22.44 18.58 22.57 18.58H22.98C23.16 18.58 23.3 18.44 23.3 18.26V17.66C23.3 17.48 23.16 17.34 22.98 17.34H22.57C22.44 17.34 22.33 17.25 22.3 17.13C22.22 16.83 22.1 16.54 21.94 16.27C21.87 16.16 21.89 16.02 21.98 15.93L22.27 15.64C22.4 15.51 22.39 15.31 22.27 15.19L21.85 14.77C21.73 14.65 21.52 14.64 21.4 14.77L21.11 15.06C21.02 15.15 20.88 15.17 20.77 15.1C20.5 14.94 20.21 14.82 19.91 14.74C19.79 14.71 19.7 14.6 19.7 14.47V14.06C19.7 13.88 19.56 13.74 19.38 13.74H18.78C18.6 13.74 18.46 13.88 18.46 14.06V14.47C18.46 14.6 18.37 14.71 18.25 14.74C17.95 14.82 17.66 14.94 17.39 15.09C17.28 15.16 17.14 15.14 17.05 15.05L16.76 14.76C16.63 14.63 16.43 14.64 16.31 14.76L15.89 15.18C15.77 15.3 15.76 15.51 15.89 15.63L16.18 15.92C16.27 16.01 16.29 16.15 16.22 16.26C16.06 16.53 15.94 16.82 15.87 17.12C15.84 17.24 15.73 17.33 15.6 17.33H15.19C15.01 17.33 14.87 17.47 14.87 17.65V18.25C14.87 18.43 15.01 18.57 15.19 18.57H15.6C15.73 18.57 15.84 18.66 15.87 18.78C15.95 19.08 16.07 19.37 16.22 19.64C16.29 19.75 16.27 19.89 16.18 19.98L15.89 20.27C15.76 20.4 15.77 20.6 15.89 20.72L16.31 21.14C16.43 21.26 16.64 21.27 16.76 21.14L17.05 20.85C17.12 20.79 17.25 20.73 17.39 20.81Z" fill="black"/>
<path d="M19.37 22.88H18.77C18.2 22.88 17.74 22.42 17.74 21.85V21.75C17.6 21.7 17.46 21.64 17.32 21.57L17.25 21.64C17.06 21.83 16.8 21.94 16.52 21.94C16.24 21.94 15.99 21.83 15.79 21.64L15.37 21.22C15.18 21.03 15.07 20.77 15.07 20.5C15.07 20.22 15.18 19.96 15.37 19.77L15.44 19.7C15.37 19.56 15.32 19.42 15.26 19.28H15.16C14.59 19.28 14.13 18.82 14.13 18.25V17.65C14.13 17.08 14.59 16.62 15.16 16.62H15.26C15.31 16.48 15.37 16.33 15.44 16.2L15.37 16.13C15.18 15.94 15.07 15.68 15.07 15.4C15.07 15.12 15.18 14.87 15.37 14.67L15.79 14.25C15.98 14.06 16.24 13.95 16.52 13.95C16.79 13.95 17.05 14.06 17.25 14.25L17.32 14.32C17.46 14.25 17.6 14.2 17.74 14.14V14.04C17.74 13.47 18.2 13.01 18.77 13.01H19.37C19.94 13.01 20.4 13.47 20.4 14.04V14.14C20.54 14.19 20.69 14.25 20.82 14.32L20.89 14.25C21.28 13.86 21.96 13.86 22.34 14.25L22.76 14.67C22.95 14.86 23.06 15.12 23.06 15.4C23.06 15.67 22.95 15.93 22.76 16.13L22.69 16.2C22.76 16.34 22.82 16.48 22.87 16.62H22.97C23.54 16.62 24 17.08 24 17.65V18.25C24 18.82 23.54 19.28 22.97 19.28H22.87C22.82 19.42 22.76 19.57 22.69 19.7L22.76 19.77C22.95 19.96 23.06 20.22 23.06 20.49C23.06 20.77 22.95 21.02 22.76 21.22L22.34 21.64C22.15 21.83 21.89 21.94 21.61 21.94C21.34 21.94 21.08 21.83 20.89 21.64L20.82 21.57C20.68 21.64 20.54 21.7 20.4 21.75V21.85C20.4 22.42 19.94 22.88 19.37 22.88ZM17.27 21.22L17.37 21.27C17.56 21.37 17.75 21.45 17.95 21.51L18.05 21.54V21.85C18.05 22.25 18.38 22.58 18.78 22.58H19.38C19.78 22.58 20.11 22.25 20.11 21.85V21.54L20.21 21.51C20.41 21.45 20.6 21.37 20.79 21.27L20.89 21.22L21.11 21.44C21.25 21.58 21.43 21.65 21.63 21.65C21.83 21.65 22.01 21.57 22.15 21.44L22.57 21.02C22.71 20.88 22.78 20.7 22.78 20.5C22.78 20.31 22.7 20.12 22.57 19.98L22.35 19.76L22.4 19.66C22.5 19.48 22.58 19.28 22.64 19.08L22.67 18.98H22.98C23.38 18.98 23.71 18.65 23.71 18.25V17.65C23.71 17.25 23.38 16.92 22.98 16.92H22.67L22.64 16.82C22.58 16.62 22.5 16.43 22.4 16.24L22.35 16.14L22.57 15.92C22.71 15.78 22.78 15.6 22.78 15.4C22.78 15.2 22.7 15.02 22.57 14.88L22.15 14.46C21.87 14.18 21.39 14.18 21.11 14.46L20.89 14.68L20.79 14.63C20.61 14.53 20.41 14.45 20.21 14.39L20.11 14.36V14.05C20.11 13.65 19.78 13.32 19.38 13.32H18.78C18.38 13.32 18.05 13.65 18.05 14.05V14.36L17.95 14.39C17.75 14.45 17.56 14.53 17.37 14.63L17.27 14.68L17.05 14.46C16.77 14.18 16.29 14.18 16.01 14.46L15.59 14.88C15.45 15.02 15.38 15.2 15.38 15.4C15.38 15.59 15.46 15.78 15.59 15.92L15.81 16.14L15.76 16.24C15.66 16.42 15.58 16.62 15.52 16.82L15.49 16.92H15.18C14.78 16.92 14.45 17.25 14.45 17.65V18.25C14.45 18.65 14.78 18.98 15.18 18.98H15.49L15.52 19.08C15.58 19.28 15.66 19.47 15.76 19.66L15.81 19.76L15.59 19.98C15.45 20.12 15.37 20.3 15.38 20.5C15.38 20.69 15.46 20.88 15.59 21.01L16.01 21.43C16.15 21.57 16.33 21.64 16.53 21.64C16.72 21.64 16.91 21.56 17.05 21.43L17.27 21.22ZM19.37 22.32H18.77C18.51 22.32 18.3 22.11 18.3 21.85V21.44C18.3 21.38 18.26 21.33 18.2 21.31C17.89 21.23 17.59 21.1 17.31 20.94C17.22 20.89 17.15 20.96 17.15 20.96L16.86 21.25C16.77 21.34 16.65 21.39 16.53 21.39C16.4 21.39 16.29 21.34 16.2 21.25L15.78 20.83C15.69 20.74 15.64 20.62 15.64 20.5C15.64 20.38 15.69 20.26 15.78 20.17L16.07 19.88C16.11 19.84 16.12 19.77 16.09 19.72C15.92 19.44 15.8 19.14 15.72 18.83C15.71 18.77 15.65 18.73 15.59 18.73H15.18C14.92 18.73 14.71 18.52 14.71 18.26V17.66C14.71 17.4 14.92 17.19 15.18 17.19H15.59C15.65 17.19 15.7 17.15 15.72 17.09C15.8 16.78 15.93 16.48 16.09 16.2C16.12 16.15 16.11 16.08 16.07 16.04L15.78 15.75C15.69 15.66 15.64 15.54 15.64 15.42C15.64 15.3 15.69 15.18 15.78 15.09L16.2 14.67C16.29 14.58 16.41 14.53 16.53 14.53C16.65 14.53 16.77 14.58 16.86 14.67L17.15 14.96C17.19 15 17.26 15.01 17.31 14.98C17.59 14.82 17.89 14.69 18.2 14.61C18.26 14.6 18.3 14.54 18.3 14.48V14.07C18.3 13.81 18.51 13.6 18.77 13.6H19.37C19.63 13.6 19.84 13.81 19.84 14.07V14.48C19.84 14.54 19.88 14.59 19.94 14.61C20.25 14.69 20.55 14.82 20.83 14.98C20.88 15.01 20.95 15 20.99 14.96L21.28 14.67C21.46 14.49 21.77 14.49 21.94 14.67L22.36 15.09C22.45 15.18 22.5 15.3 22.5 15.42C22.5 15.54 22.45 15.66 22.36 15.75L22.07 16.04C22.03 16.08 22.02 16.15 22.05 16.2C22.21 16.48 22.34 16.78 22.42 17.09C22.43 17.15 22.49 17.19 22.55 17.19H22.96C23.22 17.19 23.43 17.4 23.43 17.66V18.26C23.43 18.52 23.22 18.73 22.96 18.73H22.55C22.49 18.73 22.44 18.77 22.42 18.83C22.34 19.14 22.21 19.44 22.05 19.72C22.02 19.77 22.03 19.84 22.07 19.88L22.36 20.17C22.45 20.26 22.5 20.38 22.5 20.5C22.5 20.63 22.45 20.74 22.36 20.83L21.94 21.25C21.76 21.43 21.46 21.43 21.28 21.25L21 20.96C20.96 20.92 20.89 20.91 20.84 20.94C20.56 21.11 20.26 21.23 19.95 21.31C19.89 21.32 19.85 21.38 19.85 21.44V21.85C19.84 22.11 19.63 22.32 19.37 22.32ZM17.47 20.69C17.73 20.84 18 20.96 18.29 21.03C18.48 21.08 18.61 21.25 18.61 21.44V21.85C18.61 21.94 18.69 22.02 18.78 22.02H19.38C19.47 22.02 19.55 21.94 19.55 21.85V21.44C19.55 21.25 19.68 21.07 19.87 21.03C20.16 20.96 20.43 20.84 20.69 20.69C20.86 20.59 21.07 20.62 21.21 20.76L21.5 21.05C21.57 21.12 21.68 21.11 21.74 21.05L22.16 20.63C22.19 20.6 22.21 20.55 22.21 20.51C22.21 20.46 22.19 20.42 22.16 20.39L21.87 20.1C21.73 19.96 21.7 19.75 21.8 19.58C21.95 19.32 22.06 19.05 22.14 18.76C22.19 18.57 22.36 18.44 22.55 18.44H22.96C23.05 18.44 23.13 18.36 23.13 18.27V17.67C23.13 17.58 23.05 17.5 22.96 17.5H22.55C22.35 17.5 22.18 17.37 22.14 17.18C22.07 16.89 21.95 16.62 21.8 16.36C21.7 16.19 21.73 15.98 21.87 15.84L22.16 15.55C22.19 15.52 22.21 15.47 22.21 15.43C22.21 15.38 22.19 15.34 22.16 15.31L21.74 14.89C21.68 14.83 21.56 14.82 21.5 14.89L21.21 15.18C21.07 15.32 20.86 15.35 20.69 15.25C20.43 15.1 20.16 14.99 19.87 14.91C19.68 14.86 19.55 14.69 19.55 14.5V14.09C19.55 14 19.47 13.92 19.38 13.92H18.78C18.69 13.92 18.61 14 18.61 14.09V14.5C18.61 14.69 18.48 14.87 18.29 14.91C18 14.98 17.73 15.1 17.47 15.25C17.3 15.35 17.09 15.32 16.95 15.18L16.66 14.89C16.63 14.86 16.58 14.84 16.54 14.84C16.49 14.84 16.45 14.86 16.42 14.89L16 15.31C15.97 15.34 15.95 15.39 15.95 15.43C15.95 15.48 15.97 15.52 16 15.55L16.29 15.84C16.43 15.98 16.45 16.19 16.36 16.36C16.21 16.62 16.09 16.89 16.02 17.18C15.97 17.37 15.8 17.5 15.61 17.5H15.2C15.11 17.5 15.03 17.58 15.03 17.67V18.27C15.03 18.36 15.11 18.44 15.2 18.44H15.61C15.8 18.44 15.98 18.57 16.02 18.76C16.09 19.05 16.21 19.32 16.36 19.58C16.46 19.75 16.43 19.96 16.29 20.1L16 20.39C15.97 20.42 15.95 20.47 15.95 20.51C15.95 20.56 15.97 20.6 16 20.63L16.42 21.05C16.45 21.08 16.5 21.1 16.54 21.1C16.59 21.1 16.63 21.08 16.66 21.05L16.95 20.76C17.06 20.64 17.27 20.57 17.47 20.69Z" fill="black"/>
<path d="M19.0701 20.03C17.9201 20.03 16.9901 19.1 16.9901 17.95C16.9901 16.8 17.9201 15.87 19.0701 15.87C20.2201 15.87 21.1501 16.8 21.1501 17.95C21.1501 19.1 20.2201 20.03 19.0701 20.03ZM19.0701 16.43C18.2301 16.43 17.5501 17.11 17.5501 17.95C17.5501 18.79 18.2301 19.47 19.0701 19.47C19.9101 19.47 20.59 18.79 20.59 17.95C20.59 17.11 19.9101 16.43 19.0701 16.43Z" fill="black"/>
<path d="M19.07 20.18C17.84 20.18 16.84 19.18 16.84 17.95C16.84 16.72 17.84 15.72 19.07 15.72C20.3 15.72 21.3 16.72 21.3 17.95C21.3 19.18 20.3 20.18 19.07 20.18ZM19.07 16.02C18.01 16.02 17.14 16.89 17.14 17.95C17.14 19.01 18.01 19.88 19.07 19.88C20.13 19.88 21 19.01 21 17.95C21 16.89 20.14 16.02 19.07 16.02ZM19.07 19.62C18.15 19.62 17.4 18.87 17.4 17.95C17.4 17.03 18.15 16.28 19.07 16.28C19.99 16.28 20.74 17.03 20.74 17.95C20.74 18.87 19.99 19.62 19.07 19.62ZM19.07 16.58C18.31 16.58 17.7 17.2 17.7 17.95C17.7 18.71 18.32 19.32 19.07 19.32C19.82 19.32 20.44 18.7 20.44 17.95C20.45 17.2 19.83 16.58 19.07 16.58Z" fill="black"/>
</svg>
