<svg width="24" height="24" viewBox="0 0 24 24" fill="none" xmlns="http://www.w3.org/2000/svg">
<path d="M22.358 22.0117H2V1.6537C2 1.29183 2.29183 1 2.65369 1C3.01556 1 3.3074 1.29183 3.3074 1.6537V20.6926H22.3463C22.7082 20.6926 23 20.9844 23 21.3463C23 21.7082 22.7199 22.0117 22.358 22.0117Z" fill="black"/>
<path d="M6.42413 16.4086C6.31907 16.4086 6.20233 16.3852 6.10895 16.3268C5.79377 16.1518 5.67705 15.7549 5.85215 15.4397L8.98055 9.80156C9.15565 9.48638 9.45915 9.26459 9.79767 9.18288C10.1362 9.11284 10.4981 9.19455 10.7899 9.40467L14.9922 12.5564L21.144 3.26459C21.3424 2.96109 21.751 2.87938 22.0545 3.07782C22.358 3.27627 22.4397 3.68483 22.2412 3.98833L16.0428 13.2918C15.8444 13.5837 15.5409 13.7821 15.1907 13.8405C14.8405 13.8988 14.4903 13.8171 14.2101 13.5953L10.0895 10.5019L7.00779 16.0584C6.87938 16.2918 6.65759 16.4086 6.42413 16.4086Z" fill="black"/>
</svg>
