<svg width="24" height="24" viewBox="0 0 24 24" fill="none" xmlns="http://www.w3.org/2000/svg">
<path d="M13.4706 15.3757H11.1556C10.89 15.3757 10.6622 15.1575 10.6622 14.8824C10.6622 14.6167 10.8805 14.389 11.1556 14.389H13.4706C13.8406 14.389 14.1347 14.0854 14.1347 13.7249V5.64137C14.1347 5.27135 13.8311 4.97723 13.4706 4.97723H3.64136C3.27134 4.97723 2.97723 5.28083 2.97723 5.64137V13.7343C2.97723 14.1044 3.28083 14.3985 3.64136 14.3985H7.10437C7.37002 14.3985 7.59773 14.6167 7.59773 14.8918C7.59773 15.1575 7.37951 15.3852 7.10437 15.3852H3.64136C2.73055 15.3852 2 14.6452 2 13.7438V5.64137C2 4.73055 2.74003 4 3.64136 4H13.4706C14.3814 4 15.112 4.74004 15.112 5.64137V13.7343C15.112 14.6357 14.3719 15.3757 13.4706 15.3757Z" fill="black"/>
<path d="M15.7761 15.3757H11.7343C11.4687 15.3757 11.241 15.1575 11.241 14.8824C11.241 14.6167 11.4592 14.389 11.7343 14.389H15.7761C16.0417 14.389 16.2695 14.6072 16.2695 14.8824C16.2695 15.1575 16.0512 15.3757 15.7761 15.3757Z" fill="black"/>
<path d="M20.9374 15.3757H19.8273C19.5617 15.3757 19.334 15.1575 19.334 14.8824C19.334 14.6167 19.5522 14.389 19.8273 14.389H20.9374C20.9848 14.389 21.0228 14.351 21.0228 14.3036V10.1765C21.0228 9.95826 20.9089 9.56926 20.7856 9.37951L19.2106 6.96964C19.1252 6.8463 18.8786 6.70399 18.7268 6.70399H14.6281C14.3624 6.70399 14.1347 6.48577 14.1347 6.21063C14.1347 5.94497 14.3529 5.71727 14.6281 5.71727H18.7268C19.2106 5.71727 19.7704 6.02088 20.0266 6.41936L21.6015 8.82922C21.8292 9.17078 22 9.74953 22 10.1575V14.2846C22 14.8918 21.5256 15.3757 20.9374 15.3757Z" fill="black"/>
<path d="M9.13473 17.6907C7.74953 17.6907 6.62049 16.5617 6.62049 15.1765C6.62049 13.7913 7.74953 12.6622 9.13473 12.6622C10.5199 12.6622 11.649 13.7913 11.649 15.1765C11.649 16.5617 10.5199 17.6907 9.13473 17.6907ZM9.13473 13.6395C8.29033 13.6395 7.59773 14.3321 7.59773 15.1765C7.59773 16.0209 8.29033 16.7135 9.13473 16.7135C9.97913 16.7135 10.6717 16.0209 10.6717 15.1765C10.6622 14.3321 9.97913 13.6395 9.13473 13.6395Z" fill="black"/>
<path d="M17.8065 17.6907C16.4213 17.6907 15.2922 16.5617 15.2922 15.1765C15.2922 13.7913 16.4213 12.6622 17.8065 12.6622C19.1917 12.6622 20.3207 13.7913 20.3207 15.1765C20.3112 16.5617 19.1917 17.6907 17.8065 17.6907ZM17.8065 13.6395C16.9621 13.6395 16.2695 14.3321 16.2695 15.1765C16.2695 16.0209 16.9621 16.7135 17.8065 16.7135C18.6509 16.7135 19.3435 16.0209 19.3435 15.1765C19.334 14.3321 18.6509 13.6395 17.8065 13.6395Z" fill="black"/>
</svg>
