<svg width="24" height="24" viewBox="0 0 24 24" fill="none" xmlns="http://www.w3.org/2000/svg">
<path d="M11.7 23.02H10.32C9.2 23.02 8.29 22.11 8.29 20.99V20.52C7.82 20.37 7.35 20.18 6.91 19.95L6.58 20.28C5.78 21.08 4.49 21.06 3.72 20.28L2.74 19.3C1.96 18.52 1.94 17.24 2.74 16.44L3.07 16.11C2.84 15.67 2.65 15.21 2.5 14.73H2.03C0.910001 14.73 0 13.82 0 12.7V11.32C0 10.2 0.910001 9.29 2.03 9.29H2.5C2.65 8.82 2.84 8.35 3.07 7.91L2.74 7.58C1.94 6.78 1.96 5.49 2.74 4.72L3.72 3.74C4.5 2.96 5.78 2.94 6.58 3.74L6.91 4.07C7.35 3.84 7.81 3.65 8.29 3.5V3.03C8.29 1.91 9.2 1 10.32 1H11.7C12.82 1 13.73 1.91 13.73 3.03V3.5C14.2 3.65 14.67 3.84 15.11 4.07L15.44 3.74C16.24 2.94 17.53 2.96 18.3 3.74L19.28 4.72C20.06 5.5 20.08 6.78 19.28 7.58L18.95 7.91C19.18 8.35 19.37 8.81 19.52 9.29H19.99C21.11 9.29 22.02 10.2 22.02 11.32V12.7C22.02 13.82 21.11 14.73 19.99 14.73H19.52C19.37 15.2 19.18 15.67 18.95 16.11L19.28 16.44C20.08 17.24 20.06 18.53 19.28 19.3L18.3 20.28C17.52 21.06 16.24 21.08 15.44 20.28L15.11 19.95C14.67 20.18 14.21 20.37 13.73 20.52V20.99C13.73 22.11 12.82 23.02 11.7 23.02ZM7.13 18.6C7.75 18.96 8.41 19.24 9.1 19.42C9.38 19.49 9.58 19.75 9.58 20.04V20.99C9.58 21.4 9.91 21.73 10.32 21.73H11.7C12.11 21.73 12.44 21.4 12.44 20.99V20.04C12.44 19.75 12.64 19.49 12.92 19.42C13.61 19.24 14.27 18.97 14.89 18.6C15.14 18.45 15.47 18.49 15.67 18.7L16.34 19.37C16.63 19.66 17.1 19.65 17.38 19.37L18.36 18.39C18.64 18.11 18.65 17.64 18.36 17.35L17.69 16.68C17.48 16.47 17.44 16.15 17.59 15.9C17.95 15.28 18.23 14.62 18.41 13.93C18.48 13.65 18.74 13.45 19.03 13.45H19.98C20.39 13.45 20.72 13.12 20.72 12.71V11.33C20.72 10.92 20.39 10.59 19.98 10.59H19.03C18.74 10.59 18.48 10.39 18.41 10.11C18.23 9.42 17.96 8.76 17.59 8.14C17.44 7.89 17.48 7.56 17.69 7.36L18.36 6.69C18.65 6.4 18.64 5.93 18.36 5.65L17.38 4.67C17.1 4.39 16.63 4.38 16.34 4.67L15.67 5.34C15.46 5.55 15.14 5.59 14.89 5.44C14.27 5.08 13.61 4.8 12.92 4.62C12.64 4.55 12.44 4.29 12.44 4V3.05C12.44 2.64 12.11 2.31 11.7 2.31H10.32C9.91 2.31 9.58 2.64 9.58 3.05V4C9.58 4.29 9.38 4.55 9.1 4.62C8.41 4.8 7.75 5.07 7.13 5.44C6.88 5.59 6.55 5.55 6.35 5.34L5.68 4.67C5.39 4.38 4.92 4.39 4.64 4.67L3.66 5.65C3.38 5.93 3.37 6.4 3.66 6.69L4.33 7.36C4.54 7.57 4.58 7.89 4.43 8.14C4.07 8.76 3.79 9.42 3.61 10.11C3.54 10.39 3.28 10.59 2.99 10.59H2.04C1.63 10.59 1.3 10.92 1.3 11.33V12.71C1.3 13.12 1.63 13.45 2.04 13.45H2.99C3.28 13.45 3.54 13.65 3.61 13.93C3.79 14.62 4.06 15.28 4.43 15.9C4.58 16.15 4.54 16.48 4.33 16.68L3.66 17.35C3.37 17.64 3.38 18.11 3.66 18.39L4.64 19.37C4.92 19.65 5.39 19.66 5.68 19.37L6.35 18.7C6.5 18.55 6.82 18.42 7.13 18.6Z" fill="black"/>
<path d="M11.01 16.81C8.36997 16.81 6.21997 14.66 6.21997 12.02C6.21997 9.38 8.36997 7.23 11.01 7.23C13.65 7.23 15.8 9.38 15.8 12.02C15.8 14.66 13.65 16.81 11.01 16.81ZM11.01 8.52C9.07997 8.52 7.50997 10.09 7.50997 12.02C7.50997 13.95 9.07997 15.52 11.01 15.52C12.94 15.52 14.51 13.95 14.51 12.02C14.51 10.09 12.94 8.52 11.01 8.52Z" fill="black"/>
</svg>
