<svg width="78" height="22" viewBox="0 0 78 22" fill="none" xmlns="http://www.w3.org/2000/svg">
<path d="M28.0294 19.4055H26.3247V16.4346H28.0294V16.9703H26.9579V17.6035H27.9807V18.1392H26.9579V18.9185H28.0294V19.4055Z" fill="#232222"/>
<path d="M30.7081 19.4053H30.075V18.0416C30.075 17.8955 30.0263 17.7494 29.9776 17.652C29.9289 17.5546 29.8801 17.5545 29.7827 17.5545C29.6366 17.5545 29.4905 17.6033 29.4418 17.7494C29.3931 17.8468 29.3444 18.0416 29.3444 18.3338V19.4053H28.7112V17.1649H29.1983L29.2957 17.4571H29.3444C29.3931 17.3597 29.4905 17.2623 29.5879 17.2136C29.6853 17.1649 29.8314 17.1162 29.9776 17.1162C30.3185 17.1162 30.562 17.2136 30.6594 17.4571C30.7081 17.3597 30.8055 17.2623 30.9516 17.2136C31.0491 17.1649 31.1952 17.1162 31.3413 17.1162C31.5848 17.1162 31.7796 17.1649 31.9257 17.311C32.0718 17.4571 32.1205 17.652 32.1205 17.9442V19.4053H31.4874V18.0416C31.4874 17.8955 31.4387 17.7494 31.39 17.652C31.3413 17.5546 31.2926 17.5545 31.1465 17.5545C31.0003 17.5545 30.9029 17.6033 30.8055 17.7007C30.7081 17.7981 30.7081 17.9929 30.7081 18.2364V19.4053V19.4053Z" fill="#232222"/>
<path d="M33.8739 19.4057C33.5329 19.4057 33.2407 19.3083 32.9972 19.1135C32.8024 18.9186 32.705 18.6264 32.705 18.2368C32.705 17.8471 32.8024 17.5549 32.9972 17.3601C33.192 17.1653 33.4355 17.0679 33.7765 17.0679C34.1174 17.0679 34.3609 17.1653 34.507 17.3601C34.7018 17.5549 34.7505 17.7984 34.7505 18.1394V18.4316H33.2894C33.2894 18.6264 33.3381 18.7238 33.4355 18.8212C33.5329 18.9186 33.679 18.9673 33.8252 18.9673C33.9713 18.9673 34.0687 18.9673 34.2148 18.9186C34.3609 18.8699 34.4583 18.8212 34.6044 18.7725V19.2596C34.507 19.3083 34.3609 19.357 34.2635 19.357C34.2148 19.4057 34.0687 19.4057 33.8739 19.4057ZM33.7765 17.5062C33.6303 17.5062 33.5329 17.5549 33.4842 17.6523C33.3868 17.7497 33.3868 17.8471 33.3381 17.9933H34.2148C34.2148 17.8471 34.1661 17.701 34.1174 17.6523C34.02 17.5549 33.9226 17.5062 33.7765 17.5062Z" fill="#232222"/>
<path d="M36.65 17.0679C36.7475 17.0679 36.7962 17.0679 36.8449 17.0679L36.7962 17.6523C36.7475 17.6523 36.6987 17.6523 36.6013 17.6523C36.4065 17.6523 36.2604 17.701 36.163 17.7984C36.0656 17.8958 36.0169 18.042 36.0169 18.2368V19.4057H35.3837V17.1653H35.8708L35.9682 17.5549H36.0169C36.0656 17.4088 36.163 17.3114 36.3091 17.2627C36.3578 17.1166 36.5039 17.0679 36.65 17.0679Z" fill="#232222"/>
<path d="M39.3288 17.1162V17.4084L38.9391 17.5058C38.9878 17.6033 39.0366 17.7007 39.0366 17.8468C39.0366 18.0903 38.9391 18.2851 38.793 18.4312C38.6469 18.5773 38.4034 18.626 38.1112 18.626H38.0138H37.9164C37.8676 18.6748 37.8189 18.7235 37.8189 18.7722C37.8189 18.8696 37.9164 18.9183 38.1599 18.9183H38.5495C38.793 18.9183 38.9878 18.967 39.134 19.0644C39.2801 19.1618 39.3288 19.3079 39.3288 19.5514C39.3288 19.7949 39.2314 20.0385 38.9878 20.1846C38.7443 20.3307 38.4521 20.3794 38.0138 20.3794C37.7215 20.3794 37.478 20.3307 37.2832 20.2333C37.1371 20.1359 37.0397 19.9898 37.0397 19.7462C37.0397 19.6001 37.0884 19.5027 37.1858 19.4053C37.2832 19.3079 37.3806 19.2592 37.5754 19.2105C37.5267 19.1618 37.478 19.1618 37.4293 19.0644C37.3806 19.0157 37.3806 18.9183 37.3806 18.8696C37.3806 18.7722 37.4293 18.7235 37.478 18.6747C37.5267 18.626 37.6241 18.5773 37.6728 18.5286C37.5754 18.4799 37.478 18.3825 37.3806 18.2851C37.3319 18.1877 37.2832 18.0416 37.2832 17.8955C37.2832 17.652 37.3806 17.4571 37.5267 17.311C37.6728 17.1649 37.9164 17.1162 38.2086 17.1162C38.2573 17.1162 38.3547 17.1162 38.4521 17.1162C38.5495 17.1162 38.5982 17.1162 38.5982 17.1649H39.3288V17.1162ZM37.5754 19.6975C37.5754 19.795 37.6241 19.8437 37.7215 19.8924C37.8189 19.9411 37.9164 19.9898 38.0625 19.9898C38.306 19.9898 38.4521 19.9411 38.5982 19.8924C38.7443 19.8437 38.793 19.7462 38.793 19.6488C38.793 19.5514 38.7443 19.5027 38.6956 19.454C38.5982 19.4053 38.5008 19.4053 38.3547 19.4053H37.9651C37.8676 19.4053 37.7702 19.454 37.6728 19.5027C37.6241 19.5514 37.5754 19.6001 37.5754 19.6975ZM37.7702 17.8468C37.7702 17.9929 37.8189 18.0903 37.8676 18.139C37.9164 18.1877 38.0138 18.2364 38.1112 18.2364C38.2086 18.2364 38.306 18.1877 38.3547 18.139C38.4034 18.0903 38.4521 17.9929 38.4521 17.8468C38.4521 17.5545 38.3547 17.4571 38.1112 17.4571C37.9164 17.4571 37.7702 17.6033 37.7702 17.8468Z" fill="#232222"/>
<path d="M39.7671 16.532C39.7671 16.3372 39.8645 16.2397 40.108 16.2397C40.3515 16.2397 40.449 16.3372 40.449 16.532C40.449 16.6294 40.4002 16.6781 40.3515 16.7755C40.3028 16.8242 40.2054 16.8729 40.108 16.8729C39.8645 16.8242 39.7671 16.7268 39.7671 16.532ZM40.4002 19.4055H39.7671V17.1651H40.4002V19.4055Z" fill="#232222"/>
<path d="M43.2251 19.4053H42.5919V18.0416C42.5919 17.8955 42.5432 17.7494 42.4945 17.652C42.4458 17.5546 42.3484 17.5545 42.251 17.5545C42.0562 17.5545 41.9588 17.6033 41.8614 17.7494C41.764 17.8468 41.764 18.0416 41.764 18.3338V19.4053H41.1308V17.1649H41.6178L41.7152 17.4571H41.764C41.8127 17.3597 41.9101 17.2623 42.0562 17.2136C42.2023 17.1649 42.2997 17.1162 42.4458 17.1162C42.6893 17.1162 42.9329 17.1649 43.0303 17.311C43.1764 17.4571 43.2251 17.652 43.2251 17.9442V19.4053Z" fill="#232222"/>
<path d="M45.9039 17.1166V17.4088L45.5629 17.5062C45.6116 17.6036 45.6603 17.701 45.6603 17.8471C45.6603 18.0907 45.5629 18.2855 45.4168 18.4316C45.2707 18.5777 45.0272 18.6264 44.7349 18.6264H44.6375H44.5401C44.4914 18.6751 44.4427 18.7238 44.4427 18.7725C44.4427 18.8699 44.5401 18.9186 44.7837 18.9186H45.1733C45.4168 18.9186 45.6116 18.9673 45.7577 19.0647C45.9039 19.1622 45.9526 19.3083 45.9526 19.5518C45.9526 19.7953 45.8551 20.0388 45.6116 20.185C45.3681 20.3311 45.0759 20.3798 44.6375 20.3798C44.3453 20.3798 44.1018 20.3311 43.907 20.2337C43.7609 20.1362 43.6635 19.9901 43.6635 19.7466C43.6635 19.6005 43.7122 19.5031 43.8096 19.4057C43.907 19.3083 44.0044 19.2596 44.1992 19.2109C44.1505 19.1622 44.1018 19.1622 44.0531 19.0647C44.0044 19.016 44.0044 18.9186 44.0044 18.8699C44.0044 18.7725 44.0531 18.7238 44.1018 18.6751C44.1505 18.6264 44.2479 18.5777 44.2966 18.529C44.1992 18.4803 44.1018 18.3829 44.0044 18.2855C43.8096 18.1394 43.8096 17.9933 43.8096 17.8471C43.8096 17.6036 43.907 17.4088 44.0531 17.2627C44.1992 17.1166 44.4427 17.0679 44.7349 17.0679C44.7837 17.0679 44.8811 17.0679 44.9785 17.0679C45.0759 17.0679 45.1246 17.0679 45.1246 17.1166H45.9039V17.1166ZM44.1505 19.6979C44.1505 19.7953 44.1992 19.844 44.2966 19.8927C44.394 19.9414 44.4914 19.9901 44.6375 19.9901C44.8811 19.9901 45.0272 19.9414 45.1733 19.8927C45.3194 19.844 45.3681 19.7466 45.3681 19.6492C45.3681 19.5518 45.3194 19.5031 45.2707 19.4544C45.1733 19.4057 45.0759 19.4057 44.9298 19.4057H44.5888C44.4914 19.4057 44.394 19.4544 44.2966 19.5031C44.1992 19.5518 44.1505 19.6005 44.1505 19.6979ZM44.394 17.8471C44.394 17.9933 44.4427 18.0907 44.4914 18.1394C44.5401 18.1881 44.6375 18.2368 44.7349 18.2368C44.8324 18.2368 44.9298 18.1881 44.9785 18.1394C45.0272 18.0907 45.0759 17.9933 45.0759 17.8471C45.0759 17.5549 44.9785 17.4575 44.7349 17.4575C44.4914 17.4575 44.394 17.6036 44.394 17.8471Z" fill="#232222"/>
<path d="M49.3619 19.4055L49.167 18.7237H48.0956L47.9007 19.4055H47.2189L48.2417 16.4346H49.0209L50.0924 19.4055H49.3619ZM49.0209 18.1392C48.8261 17.5061 48.7287 17.1164 48.68 17.0677C48.6313 16.9703 48.6313 16.9216 48.6313 16.8729C48.5826 17.0677 48.4365 17.4574 48.2417 18.1392H49.0209Z" fill="#232222"/>
<path d="M52.5763 19.4055H51.9432V18.0418C51.9432 17.7009 51.8458 17.5548 51.6023 17.5548C51.4074 17.5548 51.31 17.6035 51.2126 17.7496C51.1152 17.8957 51.1152 18.0418 51.1152 18.334V19.4055H50.4821V16.2397H51.1152V16.8729C51.1152 16.9216 51.1152 17.019 51.1152 17.2138V17.4087H51.1639C51.31 17.1651 51.5048 17.0677 51.7971 17.0677C52.0406 17.0677 52.2841 17.1164 52.3815 17.2625C52.4789 17.4087 52.5763 17.6035 52.5763 17.8957V19.4055Z" fill="#232222"/>
<path d="M54.281 19.4057C53.9401 19.4057 53.6478 19.3083 53.4043 19.1135C53.2095 18.9186 53.1121 18.6264 53.1121 18.2368C53.1121 17.8471 53.2095 17.5549 53.4043 17.3601C53.5991 17.1653 53.8427 17.0679 54.1836 17.0679C54.5245 17.0679 54.768 17.1653 54.9142 17.3601C55.109 17.5549 55.1577 17.7984 55.1577 18.1394V18.4316H53.6965C53.6965 18.6264 53.7452 18.7238 53.8427 18.8212C53.9401 18.9186 54.0862 18.9673 54.2323 18.9673C54.3784 18.9673 54.4758 18.9673 54.6219 18.9186C54.768 18.8699 54.8654 18.8212 55.0116 18.7725V19.2596C54.9142 19.3083 54.768 19.357 54.6706 19.357C54.6219 19.4057 54.4758 19.4057 54.281 19.4057ZM54.2323 17.5062C54.0862 17.5062 53.9888 17.5549 53.9401 17.6523C53.8427 17.7497 53.8427 17.8471 53.794 17.9933H54.6706C54.6706 17.8471 54.6219 17.701 54.5732 17.6523C54.4271 17.5549 54.3297 17.5062 54.2323 17.5062Z" fill="#232222"/>
<path d="M57.252 19.4053L57.1545 19.1131C57.0571 19.2592 56.9597 19.3566 56.8136 19.4053C56.7162 19.454 56.5701 19.5027 56.3753 19.5027C56.1805 19.5027 55.9856 19.454 55.8395 19.3079C55.6934 19.1618 55.6447 19.0157 55.6447 18.7722C55.6447 18.5286 55.7421 18.3338 55.8882 18.2364C56.0343 18.139 56.3266 18.0416 56.6675 18.0416H57.0571V17.9442C57.0571 17.7007 56.9597 17.6033 56.7162 17.6033C56.5214 17.6033 56.3266 17.652 56.0831 17.7494L55.8882 17.311C56.1318 17.1649 56.424 17.1162 56.7649 17.1162C57.0571 17.1162 57.3007 17.1649 57.4468 17.311C57.5929 17.4571 57.6903 17.652 57.6903 17.8955V19.4053H57.252ZM57.0571 18.3338H56.8136C56.6188 18.3338 56.5214 18.3825 56.424 18.4312C56.3266 18.4799 56.2779 18.5773 56.2779 18.7235C56.2779 18.9183 56.3753 18.967 56.5701 18.967C56.7162 18.967 56.8136 18.9183 56.911 18.8209C57.0084 18.7235 57.0571 18.626 57.0571 18.4799V18.3338Z" fill="#232222"/>
<path d="M59.1027 19.4055C58.8592 19.4055 58.6157 19.3081 58.4696 19.1133C58.3235 18.9185 58.226 18.6263 58.226 18.2366C58.226 17.847 58.3235 17.5548 58.4696 17.3599C58.6157 17.1651 58.8592 17.0677 59.1027 17.0677C59.3949 17.0677 59.5898 17.1651 59.7359 17.4087C59.6872 17.2625 59.6872 17.0677 59.6872 16.9703V16.2397H60.3203V19.4055H59.8333L59.7359 19.1133H59.6872C59.5898 19.3081 59.3949 19.4055 59.1027 19.4055ZM59.3462 18.9185C59.4924 18.9185 59.6385 18.8698 59.6872 18.7724C59.7359 18.675 59.7846 18.5289 59.7846 18.2853V18.2366C59.7846 17.9931 59.7359 17.7983 59.6872 17.7009C59.5898 17.6035 59.4924 17.5548 59.2975 17.5548C59.1514 17.5548 59.054 17.6035 58.9566 17.7496C58.8592 17.847 58.8592 18.0418 58.8592 18.2366C58.8592 18.4801 58.9079 18.6263 58.9566 18.7237C59.054 18.8698 59.2001 18.9185 59.3462 18.9185Z" fill="#232222"/>
<path d="M64.1193 19.4055L63.9245 18.7237H62.853L62.6581 19.4055H61.9763L62.9991 16.4346H63.7783L64.8498 19.4055H64.1193ZM63.7783 18.1392C63.5835 17.5061 63.4861 17.1164 63.4374 17.0677C63.3887 16.9703 63.3887 16.9216 63.3887 16.8729C63.34 17.0677 63.1939 17.4574 62.9991 18.1392H63.7783Z" fill="#232222"/>
<path d="M65.8239 19.4055H65.1908V16.2397H65.8239V19.4055Z" fill="#232222"/>
<path d="M68.4053 19.4054L68.2104 18.6262L67.9669 17.6034L67.5773 19.4054H66.8954L66.2623 17.165H66.8954L67.1389 18.1878C67.1876 18.3826 67.2364 18.6262 67.2851 18.9184C67.2851 18.821 67.3338 18.6749 67.3338 18.4314L67.3825 18.2365L67.6747 17.165H68.3565L68.6001 18.2365C68.6001 18.2852 68.6001 18.3339 68.6488 18.3826C68.6975 18.4314 68.6488 18.4801 68.6975 18.5775C68.6975 18.6262 68.6975 18.7236 68.7462 18.7723C68.7462 18.821 68.7462 18.8697 68.7462 18.9184C68.7462 18.821 68.7949 18.6749 68.7949 18.5288C68.8436 18.3826 68.8436 18.2365 68.8436 18.1878L69.1358 17.165H69.7203L69.0871 19.4054H68.4053V19.4054Z" fill="#232222"/>
<path d="M71.6198 19.4053L71.5223 19.1131C71.4249 19.2592 71.3275 19.3566 71.1814 19.4053C71.084 19.454 70.9379 19.5027 70.7431 19.5027C70.5483 19.5027 70.3534 19.454 70.2073 19.3079C70.0612 19.1618 70.0125 19.0157 70.0125 18.7722C70.0125 18.5286 70.1099 18.3338 70.256 18.2364C70.4021 18.139 70.6944 18.0416 71.0353 18.0416H71.4249V17.9442C71.4249 17.7007 71.3275 17.6033 71.084 17.6033C70.8892 17.6033 70.6944 17.652 70.4508 17.7494L70.256 17.311C70.4996 17.1649 70.7918 17.1162 71.1327 17.1162C71.4249 17.1162 71.6685 17.1649 71.8146 17.311C71.9607 17.4571 72.0581 17.652 72.0581 17.8955V19.4053H71.6198ZM71.4249 18.3338H71.1814C70.9866 18.3338 70.8892 18.3825 70.7918 18.4312C70.6944 18.4799 70.6457 18.5773 70.6457 18.7235C70.6457 18.9183 70.7431 18.967 70.9379 18.967C71.084 18.967 71.1814 18.9183 71.2788 18.8209C71.3762 18.7235 71.4249 18.626 71.4249 18.4799V18.3338V18.3338Z" fill="#232222"/>
<path d="M72.4477 17.1162H73.1296L73.5679 18.3825C73.6166 18.4799 73.6166 18.626 73.6653 18.7722C73.6653 18.626 73.714 18.4799 73.7627 18.3825L74.2011 17.1162H74.8829L73.9089 19.6488C73.8114 19.8924 73.714 20.0385 73.5192 20.1846C73.3244 20.3307 73.1783 20.3794 72.9348 20.3794C72.8374 20.3794 72.7399 20.3794 72.6425 20.3307V19.8437C72.7399 19.8437 72.7887 19.8924 72.8861 19.8924C72.9835 19.8924 73.0809 19.8437 73.1783 19.7949C73.2757 19.7462 73.3244 19.6488 73.3731 19.5027L73.4218 19.4053L72.4477 17.1162Z" fill="#232222"/>
<path d="M76.7824 18.7236C76.7824 18.9671 76.685 19.1132 76.5389 19.2593C76.3928 19.3567 76.1492 19.4541 75.8083 19.4541C75.6622 19.4541 75.5161 19.4541 75.37 19.4054C75.2239 19.3567 75.1265 19.3567 75.0291 19.308V18.821C75.1265 18.8697 75.2726 18.9184 75.4187 18.9671C75.5648 19.0158 75.7109 19.0158 75.8083 19.0158C76.0518 19.0158 76.1492 18.9671 76.1492 18.821C76.1492 18.7723 76.1493 18.7236 76.1005 18.7236C76.0518 18.6749 76.0031 18.6749 75.9544 18.6262C75.9057 18.5775 75.8083 18.5288 75.6622 18.4801C75.4674 18.4314 75.37 18.3339 75.2726 18.2852C75.1752 18.2365 75.1265 18.1391 75.0778 18.0904C75.029 18.0417 75.0291 17.8956 75.0291 17.7982C75.0291 17.6034 75.1265 17.4573 75.2726 17.3112C75.4187 17.2137 75.6622 17.165 75.9544 17.165C76.2467 17.165 76.4902 17.2137 76.7337 17.3599L76.5389 17.7982C76.4415 17.7495 76.2954 17.7008 76.198 17.7008C76.1005 17.6521 76.0031 17.6521 75.9057 17.6521C75.7109 17.6521 75.6135 17.7008 75.6135 17.7982C75.6135 17.8469 75.6622 17.8956 75.7109 17.9443C75.7596 17.993 75.9057 18.0417 76.1005 18.1391C76.2954 18.1878 76.3928 18.2852 76.4902 18.3339C76.5876 18.3826 76.6363 18.4801 76.685 18.5288C76.7824 18.4801 76.7824 18.5775 76.7824 18.7236Z" fill="#232222"/>
<path d="M13.5154 2.31065C13.5154 2.01842 13.759 1.92102 14.0512 2.06713L18.5807 4.64846C18.8729 4.79457 18.8729 5.0868 18.5807 5.23291L14.0025 7.76554C13.7103 7.91165 13.4667 7.81424 13.4667 7.52202L13.5154 2.31065Z" fill="#DC2230"/>
<path d="M20.2854 7.71703C20.5776 7.57092 20.8211 7.66833 20.8211 7.96055V13.2206C20.8211 13.5128 20.5776 13.659 20.2854 13.4641L15.6584 10.9315C15.3662 10.7854 15.3662 10.4932 15.6584 10.3471L20.2854 7.71703Z" fill="#232222"/>
<path d="M13.418 13.6101C13.418 13.3178 13.6616 13.1717 13.9538 13.3665L18.5807 15.9966C18.8729 16.1427 18.8729 16.4349 18.5807 16.581L14.0025 19.1137C13.7103 19.2598 13.4667 19.1624 13.4667 18.8701V13.6101H13.418Z" fill="#DC2230"/>
<path d="M9.18077 4.40494C9.86263 3.9666 10.4471 4.21012 10.4471 4.98939L10.3984 16.1914C10.3984 16.922 9.81393 17.2142 9.13207 16.7758L0.511396 11.4184C-0.170465 10.98 -0.170465 10.2982 0.511396 9.85983L9.18077 4.40494Z" fill="#232222"/>
<path d="M55.4986 4.06421H57.3494L59.2001 11.175L61.1483 3.9668L63.0478 4.0155L60.0768 14.0486H58.1773L55.4986 4.06421Z" fill="#DC2230"/>
<path d="M63.9245 4.01514H70.4508V5.67108H65.97V8.15501H69.4281V9.85966H66.0188V12.3436H70.4508V13.9995H63.9245V4.01514Z" fill="#DC2230"/>
<path d="M73.4218 7.66833L77.9513 9.03205L78 12.3439C78 12.3439 77.9026 13.8538 76.2467 13.9512H73.4218C73.4218 13.9512 71.8146 13.9999 71.6198 12.5388V11.0289H73.4218V11.8082C73.4218 11.8082 73.5192 12.5388 74.2498 12.5388H75.4674C75.4674 12.5388 76.1493 12.4901 76.1493 11.9056V10.1522L71.6198 8.83723L71.5223 5.57404C71.5223 5.57404 71.7172 4.16161 73.5679 3.9668H76.2954C76.2954 3.9668 77.9026 4.16161 78 5.52534V7.03517H76.198V6.2559C76.198 6.2559 76.1493 5.67145 75.5161 5.62274L74.1524 5.57404C74.1524 5.57404 73.4218 5.52534 73.4218 6.35331V7.66833Z" fill="#DC2230"/>
<path d="M26.0325 3.9668H28.0781V8.30148L31.049 3.9668L33.0946 4.0155L30.0749 8.59371L33.2894 14.0486H31.1464L28.7112 10.1522L28.0781 11.2237V14.0486H25.9351L26.0325 3.9668Z" fill="#DC2230"/>
<path d="M50.6769 4.06396H52.5276V12.3437H56.2779V14.0484H50.5795L50.6769 4.06396Z" fill="#DC2230"/>
<path d="M36.5526 7.6682L41.0821 9.03192L41.1308 12.3438C41.1308 12.3438 41.0334 13.8537 39.3775 13.9511H36.5039C36.5039 13.9511 34.8967 13.9998 34.7018 12.5386V11.0288H36.5039V11.8081C36.5039 11.8081 36.6013 12.5386 37.3319 12.5386H38.5495C38.5495 12.5386 39.2313 12.4899 39.2313 11.9055V10.1521L34.7018 8.7884L34.6044 5.52521C34.6044 5.52521 34.7993 4.11279 36.65 3.91797H39.3775C39.3775 3.91797 40.9847 4.11279 41.0821 5.47651V6.98634H39.28V6.25578C39.28 6.25578 39.2313 5.67133 38.5982 5.62262L37.2345 5.57392C37.2345 5.57392 36.5039 5.52521 36.5039 6.35319L36.5526 7.6682Z" fill="#DC2230"/>
<path d="M47.0728 4.01514H44.5889C43.4687 4.01514 42.5433 4.79441 42.5433 5.8172V12.1975C42.5433 13.1716 43.4687 13.9995 44.5889 13.9995H47.0728C48.193 13.9995 49.1184 13.2203 49.1184 12.1975V5.8172C49.0697 4.79441 48.193 4.01514 47.0728 4.01514ZM47.2189 11.8565C47.2189 12.1488 46.9267 12.3923 46.5857 12.3923H45.1246C44.7837 12.3923 44.4914 12.1488 44.4914 11.8565V6.25554C44.4914 5.96331 44.7837 5.71979 45.1246 5.71979H46.5857C46.9267 5.71979 47.2189 5.96331 47.2189 6.25554V11.8565Z" fill="#DC2230"/>
</svg>
