<svg width="78" height="19" viewBox="0 0 78 19" fill="none" xmlns="http://www.w3.org/2000/svg">
<path d="M28.0294 17.6286H26.3247V14.6196H28.0294V15.1622H26.9579V15.8035H27.9807V16.3461H26.9579V17.1354H28.0294V17.6286Z" fill="white"/>
<path d="M30.7081 17.6284H30.075V16.2473C30.075 16.0993 30.0263 15.9513 29.9776 15.8527C29.9289 15.754 29.8801 15.7539 29.7827 15.7539C29.6366 15.7539 29.4905 15.8033 29.4418 15.9513C29.3931 16.05 29.3444 16.2473 29.3444 16.5432V17.6284H28.7112V15.3593H29.1983L29.2957 15.6553H29.3444C29.3931 15.5566 29.4905 15.458 29.5879 15.4086C29.6853 15.3593 29.8314 15.31 29.9776 15.31C30.3185 15.31 30.562 15.4086 30.6594 15.6553C30.7081 15.5566 30.8055 15.458 30.9516 15.4086C31.0491 15.3593 31.1952 15.31 31.3413 15.31C31.5848 15.31 31.7796 15.3593 31.9257 15.5073C32.0718 15.6553 32.1205 15.8527 32.1205 16.1486V17.6284H31.4874V16.2473C31.4874 16.0993 31.4387 15.9513 31.39 15.8527C31.3413 15.754 31.2926 15.7539 31.1465 15.7539C31.0003 15.7539 30.9029 15.8033 30.8055 15.902C30.7081 16.0006 30.7081 16.1979 30.7081 16.4446V17.6284Z" fill="white"/>
<path d="M33.8739 17.6288C33.5329 17.6288 33.2407 17.5302 32.9972 17.3329C32.8024 17.1355 32.705 16.8395 32.705 16.4449C32.705 16.0502 32.8024 15.7543 32.9972 15.557C33.192 15.3597 33.4355 15.261 33.7765 15.261C34.1174 15.261 34.3609 15.3597 34.507 15.557C34.7018 15.7543 34.7505 16.0009 34.7505 16.3463V16.6422H33.2894C33.2894 16.8395 33.3381 16.9382 33.4355 17.0368C33.5329 17.1355 33.679 17.1848 33.8252 17.1848C33.9713 17.1848 34.0687 17.1848 34.2148 17.1355C34.3609 17.0862 34.4583 17.0368 34.6044 16.9875V17.4808C34.507 17.5302 34.3609 17.5795 34.2635 17.5795C34.2148 17.6288 34.0687 17.6288 33.8739 17.6288ZM33.7765 15.705C33.6303 15.705 33.5329 15.7543 33.4842 15.8529C33.3868 15.9516 33.3868 16.0502 33.3381 16.1983H34.2148C34.2148 16.0502 34.1661 15.9023 34.1174 15.8529C34.02 15.7543 33.9226 15.705 33.7765 15.705Z" fill="white"/>
<path d="M36.65 15.261C36.7475 15.261 36.7962 15.261 36.8449 15.261L36.7962 15.8529C36.7475 15.8529 36.6987 15.8529 36.6013 15.8529C36.4065 15.8529 36.2604 15.9023 36.163 16.0009C36.0656 16.0996 36.0169 16.2476 36.0169 16.4449V17.6288H35.3837V15.3597H35.8708L35.9682 15.7543H36.0169C36.0656 15.6063 36.163 15.5077 36.3091 15.4583C36.3578 15.3104 36.5039 15.261 36.65 15.261Z" fill="white"/>
<path d="M39.3288 15.31V15.6059L38.9391 15.7046C38.9878 15.8033 39.0366 15.902 39.0366 16.05C39.0366 16.2966 38.9391 16.4939 38.793 16.6419C38.6469 16.7898 38.4034 16.8392 38.1112 16.8392H38.0138H37.9164C37.8676 16.8886 37.8189 16.9379 37.8189 16.9872C37.8189 17.0859 37.9164 17.1352 38.1599 17.1352H38.5495C38.793 17.1352 38.9878 17.1845 39.134 17.2832C39.2801 17.3818 39.3288 17.5298 39.3288 17.7764C39.3288 18.023 39.2314 18.2698 38.9878 18.4177C38.7443 18.5657 38.4521 18.615 38.0138 18.615C37.7215 18.615 37.478 18.5657 37.2832 18.4671C37.1371 18.3684 37.0397 18.2204 37.0397 17.9737C37.0397 17.8257 37.0884 17.7271 37.1858 17.6284C37.2832 17.5298 37.3806 17.4805 37.5754 17.4311C37.5267 17.3818 37.478 17.3818 37.4293 17.2832C37.3806 17.2339 37.3806 17.1352 37.3806 17.0859C37.3806 16.9872 37.4293 16.9379 37.478 16.8885C37.5267 16.8392 37.6241 16.7898 37.6728 16.7405C37.5754 16.6912 37.478 16.5925 37.3806 16.4939C37.3319 16.3952 37.2832 16.2473 37.2832 16.0993C37.2832 15.8527 37.3806 15.6553 37.5267 15.5073C37.6728 15.3593 37.9164 15.31 38.2086 15.31C38.2573 15.31 38.3547 15.31 38.4521 15.31C38.5495 15.31 38.5982 15.31 38.5982 15.3593H39.3288V15.31ZM37.5754 17.9244C37.5754 18.0231 37.6241 18.0725 37.7215 18.1218C37.8189 18.1711 37.9164 18.2204 38.0625 18.2204C38.306 18.2204 38.4521 18.1711 38.5982 18.1218C38.7443 18.0725 38.793 17.9737 38.793 17.8751C38.793 17.7764 38.7443 17.7271 38.6956 17.6778C38.5982 17.6284 38.5008 17.6284 38.3547 17.6284H37.9651C37.8676 17.6284 37.7702 17.6778 37.6728 17.7271C37.6241 17.7764 37.5754 17.8257 37.5754 17.9244ZM37.7702 16.05C37.7702 16.1979 37.8189 16.2966 37.8676 16.3459C37.9164 16.3952 38.0138 16.4446 38.1112 16.4446C38.2086 16.4446 38.306 16.3952 38.3547 16.3459C38.4034 16.2966 38.4521 16.1979 38.4521 16.05C38.4521 15.7539 38.3547 15.6553 38.1112 15.6553C37.9164 15.6553 37.7702 15.8033 37.7702 16.05Z" fill="white"/>
<path d="M39.7671 14.7183C39.7671 14.521 39.8645 14.4222 40.108 14.4222C40.3515 14.4222 40.449 14.521 40.449 14.7183C40.449 14.8169 40.4002 14.8663 40.3515 14.9649C40.3028 15.0142 40.2054 15.0636 40.108 15.0636C39.8645 15.0142 39.7671 14.9156 39.7671 14.7183ZM40.4002 17.6286H39.7671V15.3595H40.4002V17.6286Z" fill="white"/>
<path d="M43.2252 17.6284H42.592V16.2473C42.592 16.0993 42.5433 15.9513 42.4946 15.8527C42.4459 15.754 42.3485 15.7539 42.2511 15.7539C42.0563 15.7539 41.9589 15.8033 41.8615 15.9513C41.7641 16.05 41.7641 16.2473 41.7641 16.5432V17.6284H41.1309V15.3593H41.6179L41.7153 15.6553H41.7641C41.8128 15.5566 41.9102 15.458 42.0563 15.4086C42.2024 15.3593 42.2998 15.31 42.4459 15.31C42.6894 15.31 42.933 15.3593 43.0304 15.5073C43.1765 15.6553 43.2252 15.8527 43.2252 16.1486V17.6284Z" fill="white"/>
<path d="M45.9039 15.3104V15.6063L45.5629 15.705C45.6116 15.8036 45.6603 15.9023 45.6603 16.0502C45.6603 16.297 45.5629 16.4943 45.4168 16.6422C45.2707 16.7902 45.0272 16.8395 44.7349 16.8395H44.6375H44.5401C44.4914 16.8889 44.4426 16.9382 44.4426 16.9875C44.4426 17.0861 44.54 17.1355 44.7836 17.1355H45.1733C45.4168 17.1355 45.6116 17.1848 45.7577 17.2834C45.9039 17.3822 45.9525 17.5302 45.9525 17.7768C45.9525 18.0234 45.855 18.27 45.6115 18.4181C45.368 18.5661 45.0759 18.6154 44.6375 18.6154C44.3453 18.6154 44.1018 18.5661 43.907 18.4674C43.7609 18.3687 43.6635 18.2207 43.6635 17.9741C43.6635 17.8261 43.7122 17.7275 43.8096 17.6288C43.907 17.5302 44.0044 17.4808 44.1992 17.4315C44.1505 17.3822 44.1018 17.3822 44.0531 17.2834C44.0044 17.2341 44.0043 17.1355 44.0043 17.0862C44.0043 16.9875 44.053 16.9382 44.1017 16.8889C44.1504 16.8395 44.2479 16.7902 44.2966 16.7409C44.1992 16.6916 44.1017 16.5929 44.0043 16.4943C43.8095 16.3463 43.8096 16.1983 43.8096 16.0502C43.8096 15.8036 43.907 15.6063 44.0531 15.4583C44.1992 15.3104 44.4427 15.261 44.7349 15.261C44.7837 15.261 44.8811 15.261 44.9785 15.261C45.0759 15.261 45.1245 15.261 45.1245 15.3104H45.9039ZM44.1505 17.9248C44.1505 18.0234 44.1992 18.0727 44.2966 18.1221C44.394 18.1714 44.4914 18.2207 44.6375 18.2207C44.8811 18.2207 45.0272 18.1714 45.1733 18.1221C45.3194 18.0727 45.368 17.9741 45.368 17.8754C45.368 17.7768 45.3193 17.7275 45.2706 17.6781C45.1732 17.6288 45.0758 17.6288 44.9297 17.6288H44.5887C44.4913 17.6288 44.394 17.6781 44.2966 17.7275C44.1992 17.7768 44.1505 17.8261 44.1505 17.9248ZM44.394 16.0502C44.394 16.1983 44.4427 16.297 44.4914 16.3463C44.5401 16.3956 44.6375 16.4449 44.7349 16.4449C44.8324 16.4449 44.9298 16.3956 44.9785 16.3463C45.0272 16.297 45.0759 16.1983 45.0759 16.0502C45.0759 15.7543 44.9785 15.6556 44.7349 15.6556C44.4914 15.6556 44.394 15.8036 44.394 16.0502Z" fill="white"/>
<path d="M49.3619 17.6286L49.167 16.9381H48.0956L47.9007 17.6286H47.2189L48.2417 14.6196H49.0209L50.0924 17.6286H49.3619ZM49.0209 16.3461C48.8261 15.7049 48.7287 15.3102 48.68 15.2608C48.6313 15.1622 48.6313 15.1129 48.6313 15.0635C48.5826 15.2608 48.4365 15.6555 48.2417 16.3461H49.0209Z" fill="white"/>
<path d="M52.5763 17.6286H51.9432V16.2474C51.9432 15.9022 51.8458 15.7542 51.6023 15.7542C51.4074 15.7542 51.31 15.8035 51.2126 15.9515C51.1152 16.0995 51.1152 16.2474 51.1152 16.5434V17.6286H50.4821V14.4222H51.1152V15.0636C51.1152 15.1129 51.1152 15.2115 51.1152 15.4088V15.6062H51.1639C51.31 15.3595 51.5048 15.2609 51.7971 15.2609C52.0406 15.2609 52.2841 15.3102 52.3815 15.4582C52.4789 15.6062 52.5763 15.8035 52.5763 16.0995V17.6286Z" fill="white"/>
<path d="M54.281 17.6288C53.9401 17.6288 53.6478 17.5302 53.4043 17.3329C53.2095 17.1355 53.1121 16.8395 53.1121 16.4449C53.1121 16.0502 53.2095 15.7543 53.4043 15.557C53.5991 15.3597 53.8427 15.261 54.1836 15.261C54.5245 15.261 54.768 15.3597 54.9142 15.557C55.109 15.7543 55.1577 16.0009 55.1577 16.3463V16.6422H53.6965C53.6965 16.8395 53.7452 16.9382 53.8427 17.0368C53.9401 17.1355 54.0862 17.1848 54.2323 17.1848C54.3784 17.1848 54.4758 17.1848 54.6219 17.1355C54.768 17.0862 54.8654 17.0368 55.0116 16.9875V17.4808C54.9142 17.5302 54.768 17.5795 54.6706 17.5795C54.6219 17.6288 54.4758 17.6288 54.281 17.6288ZM54.2323 15.705C54.0862 15.705 53.9888 15.7543 53.9401 15.8529C53.8427 15.9516 53.8427 16.0502 53.794 16.1983H54.6706C54.6706 16.0502 54.6219 15.9023 54.5732 15.8529C54.4271 15.7543 54.3297 15.705 54.2323 15.705Z" fill="white"/>
<path d="M57.252 17.6284L57.1545 17.3325C57.0571 17.4805 56.9597 17.5791 56.8136 17.6284C56.7162 17.6778 56.5701 17.7271 56.3753 17.7271C56.1805 17.7271 55.9856 17.6778 55.8395 17.5298C55.6934 17.3818 55.6447 17.2339 55.6447 16.9872C55.6447 16.7405 55.7421 16.5432 55.8882 16.4446C56.0343 16.3459 56.3266 16.2473 56.6675 16.2473H57.0571V16.1486C57.0571 15.902 56.9597 15.8033 56.7162 15.8033C56.5214 15.8033 56.3266 15.8527 56.0831 15.9513L55.8882 15.5073C56.1318 15.3593 56.424 15.31 56.7649 15.31C57.0571 15.31 57.3007 15.3593 57.4468 15.5073C57.5929 15.6553 57.6903 15.8527 57.6903 16.0993V17.6284H57.252ZM57.0571 16.5432H56.8136C56.6188 16.5432 56.5214 16.5925 56.424 16.6419C56.3266 16.6912 56.2779 16.7898 56.2779 16.9379C56.2779 17.1352 56.3753 17.1845 56.5701 17.1845C56.7162 17.1845 56.8136 17.1352 56.911 17.0366C57.0084 16.9379 57.0571 16.8392 57.0571 16.6912V16.5432Z" fill="white"/>
<path d="M59.1026 17.6286C58.8591 17.6286 58.6157 17.53 58.4696 17.3327C58.3235 17.1354 58.226 16.8394 58.226 16.4447C58.226 16.0501 58.3235 15.7542 58.4696 15.5568C58.6157 15.3595 58.8591 15.2609 59.1026 15.2609C59.3948 15.2609 59.5898 15.3595 59.7358 15.6062C59.6871 15.4582 59.6871 15.2609 59.6871 15.1622V14.4222H60.3202V17.6286H59.8333L59.7358 17.3327H59.6871C59.5897 17.53 59.3948 17.6286 59.1026 17.6286ZM59.3461 17.1354C59.4923 17.1354 59.6384 17.0861 59.6871 16.9874C59.7358 16.8888 59.7845 16.7408 59.7845 16.4941V16.4447C59.7845 16.1981 59.7358 16.0008 59.6871 15.9022C59.5897 15.8035 59.4923 15.7542 59.2975 15.7542C59.1514 15.7542 59.0539 15.8035 58.9565 15.9515C58.8592 16.0501 58.8591 16.2474 58.8591 16.4447C58.8591 16.6914 58.9078 16.8394 58.9565 16.9381C59.0539 17.0861 59.2 17.1354 59.3461 17.1354Z" fill="white"/>
<path d="M64.1193 17.6286L63.9245 16.9381H62.853L62.6581 17.6286H61.9763L62.9991 14.6196H63.7783L64.8498 17.6286H64.1193ZM63.7783 16.3461C63.5835 15.7049 63.4861 15.3102 63.4374 15.2608C63.3887 15.1622 63.3887 15.1129 63.3887 15.0635C63.34 15.2608 63.1939 15.6555 62.9991 16.3461H63.7783Z" fill="white"/>
<path d="M65.8239 17.6286H65.1908V14.4222H65.8239V17.6286Z" fill="white"/>
<path d="M68.4053 17.6285L68.2104 16.8393L67.9669 15.8034L67.5773 17.6285H66.8954L66.2623 15.3594H66.8954L67.1389 16.3953C67.1876 16.5926 67.2364 16.8393 67.2851 17.1353C67.2851 17.0366 67.3338 16.8886 67.3338 16.642L67.3825 16.4446L67.6747 15.3594H68.3565L68.6001 16.4446C68.6001 16.4939 68.6001 16.5433 68.6488 16.5926C68.6975 16.642 68.6488 16.6913 68.6975 16.79C68.6975 16.8393 68.6975 16.938 68.7462 16.9873C68.7462 17.0366 68.7462 17.0859 68.7462 17.1353C68.7462 17.0366 68.7949 16.8886 68.7949 16.7407C68.8436 16.5926 68.8436 16.4446 68.8436 16.3953L69.1358 15.3594H69.7203L69.0871 17.6285H68.4053Z" fill="white"/>
<path d="M71.6198 17.6284L71.5223 17.3325C71.4249 17.4805 71.3275 17.5791 71.1814 17.6284C71.084 17.6778 70.9379 17.7271 70.7431 17.7271C70.5483 17.7271 70.3534 17.6778 70.2073 17.5298C70.0612 17.3818 70.0125 17.2339 70.0125 16.9872C70.0125 16.7405 70.1099 16.5432 70.256 16.4446C70.4021 16.3459 70.6944 16.2473 71.0353 16.2473H71.4249V16.1486C71.4249 15.902 71.3275 15.8033 71.084 15.8033C70.8892 15.8033 70.6944 15.8527 70.4508 15.9513L70.256 15.5073C70.4996 15.3593 70.7918 15.31 71.1327 15.31C71.4249 15.31 71.6685 15.3593 71.8146 15.5073C71.9607 15.6553 72.0581 15.8527 72.0581 16.0993V17.6284H71.6198ZM71.4249 16.5432H71.1814C70.9866 16.5432 70.8892 16.5925 70.7918 16.6419C70.6944 16.6912 70.6457 16.7898 70.6457 16.9379C70.6457 17.1352 70.7431 17.1845 70.9379 17.1845C71.084 17.1845 71.1814 17.1352 71.2788 17.0366C71.3762 16.9379 71.4249 16.8392 71.4249 16.6912V16.5432Z" fill="white"/>
<path d="M72.4478 15.31H73.1297L73.568 16.5925C73.6167 16.6912 73.6167 16.8392 73.6654 16.9872C73.6654 16.8392 73.7141 16.6912 73.7628 16.5925L74.2012 15.31H74.883L73.909 17.8751C73.8115 18.1218 73.7141 18.2698 73.5193 18.4177C73.3245 18.5657 73.1784 18.615 72.9349 18.615C72.8375 18.615 72.74 18.615 72.6426 18.5657V18.0725C72.74 18.0725 72.7888 18.1218 72.8862 18.1218C72.9836 18.1218 73.081 18.0725 73.1784 18.023C73.2758 17.9737 73.3245 17.8751 73.3732 17.7271L73.4219 17.6284L72.4478 15.31Z" fill="white"/>
<path d="M76.7823 16.938C76.7823 17.1846 76.6849 17.3326 76.5388 17.4805C76.3928 17.5792 76.1491 17.6778 75.8082 17.6778C75.6621 17.6778 75.5161 17.6778 75.37 17.6285C75.2239 17.5792 75.1265 17.5792 75.0291 17.5298V17.0366C75.1265 17.0859 75.2726 17.1353 75.4187 17.1846C75.5648 17.2339 75.7108 17.2339 75.8082 17.2339C76.0517 17.2339 76.1491 17.1846 76.1491 17.0366C76.1491 16.9873 76.1493 16.938 76.1005 16.938C76.0518 16.8886 76.003 16.8886 75.9543 16.8393C75.9056 16.79 75.8083 16.7407 75.6622 16.6913C75.4674 16.642 75.37 16.5433 75.2726 16.4939C75.1752 16.4446 75.1265 16.346 75.0778 16.2966C75.029 16.2473 75.0291 16.0993 75.0291 16.0007C75.0291 15.8034 75.1265 15.6554 75.2726 15.5074C75.4187 15.4087 75.6622 15.3594 75.9543 15.3594C76.2466 15.3594 76.4902 15.4087 76.7337 15.5568L76.5388 16.0007C76.4415 15.9514 76.2953 15.902 76.1979 15.902C76.1004 15.8527 76.0031 15.8527 75.9057 15.8527C75.7109 15.8527 75.6135 15.902 75.6135 16.0007C75.6135 16.05 75.6622 16.0993 75.7109 16.1487C75.7596 16.198 75.9057 16.2473 76.1005 16.346C76.2954 16.3953 76.3927 16.4939 76.4901 16.5433C76.5875 16.5926 76.6362 16.6913 76.6849 16.7407C76.7823 16.6913 76.7823 16.79 76.7823 16.938Z" fill="white"/>
<path d="M13.5154 0.314631C13.5154 0.0186549 13.759 -0.0799939 14.0512 0.0679893L18.5807 2.68241C18.8729 2.8304 18.8729 3.12637 18.5807 3.27436L14.0025 5.83946C13.7103 5.98744 13.4667 5.88878 13.4667 5.59281L13.5154 0.314631Z" fill="white"/>
<path d="M20.2854 5.79034C20.5776 5.64236 20.8211 5.74101 20.8211 6.03698V11.3645C20.8211 11.6604 20.5776 11.8085 20.2854 11.6111L15.6584 9.04602C15.3662 8.89805 15.3662 8.6021 15.6584 8.45413L20.2854 5.79034Z" fill="white"/>
<path d="M13.418 11.759C13.418 11.4629 13.6616 11.315 13.9538 11.5123L18.5807 14.1761C18.8729 14.324 18.8729 14.62 18.5807 14.768L14.0025 17.3331C13.7103 17.4811 13.4667 17.3825 13.4667 17.0864V11.759H13.418Z" fill="white"/>
<path d="M9.18077 2.43579C9.86263 1.99183 10.4471 2.23847 10.4471 3.02774L10.3984 14.3734C10.3984 15.1133 9.81393 15.4093 9.13207 14.9653L0.511396 9.53917C-0.170465 9.09515 -0.170465 8.40461 0.511396 7.96062L9.18077 2.43579Z" fill="white"/>
<path d="M55.4987 2.09066H57.3495L59.2002 9.29262L61.1484 1.992L63.0479 2.04133L60.0769 12.2031H58.1774L55.4987 2.09066Z" fill="white"/>
<path d="M63.9246 2.04095H70.4509V3.71812H65.9701V6.2339H69.4282V7.9604H66.0189V10.4762H70.4509V12.1533H63.9246V2.04095Z" fill="white"/>
<path d="M73.4218 5.74099L77.9513 7.12219L78 10.4765C78 10.4765 77.9026 12.0058 76.2467 12.1044H73.4218C73.4218 12.1044 71.8146 12.1537 71.6198 10.6739V9.14465H73.4218V9.93394C73.4218 9.93394 73.5192 10.6739 74.2498 10.6739H75.4674C75.4674 10.6739 76.1493 10.6246 76.1493 10.0326V8.2567L71.6198 6.92488L71.5223 3.61985C71.5223 3.61985 71.7172 2.18931 73.5679 1.992H76.2954C76.2954 1.992 77.9026 2.18931 78 3.57053V5.09971H76.198V4.31045C76.198 4.31045 76.1493 3.71851 75.5161 3.66917L74.1524 3.61985C74.1524 3.61985 73.4218 3.57053 73.4218 4.40911V5.74099Z" fill="white"/>
<path d="M26.0325 1.992H28.0781V6.38226L31.049 1.992L33.0946 2.04133L30.0749 6.67823L33.2894 12.2031H31.1464L28.7112 8.2567L28.0781 9.34194V12.2031H25.9351L26.0325 1.992Z" fill="white"/>
<path d="M50.6769 2.09045H52.5276V10.4763H56.2779V12.2029H50.5795L50.6769 2.09045Z" fill="white"/>
<path d="M36.5526 5.74088L41.0821 7.12208L41.1308 10.4764C41.1308 10.4764 41.0334 12.0057 39.3775 12.1043H36.5039C36.5039 12.1043 34.8967 12.1537 34.7018 10.6737V9.14456H36.5039V9.93385C36.5039 9.93385 36.6013 10.6737 37.3319 10.6737H38.5495C38.5495 10.6737 39.2313 10.6244 39.2313 10.0325V8.25662L34.7018 6.87544L34.6044 3.57041C34.6044 3.57041 34.7993 2.13988 36.65 1.94257H39.3775C39.3775 1.94257 40.9847 2.13988 41.0821 3.52109V5.05027H39.28V4.31035C39.28 4.31035 39.2313 3.71841 38.5982 3.66907L37.2345 3.61975C37.2345 3.61975 36.5039 3.57041 36.5039 4.40901L36.5526 5.74088Z" fill="white"/>
<path d="M47.0728 2.04095H44.5889C43.4687 2.04095 42.5433 2.83022 42.5433 3.86612V10.3282C42.5433 11.3148 43.4687 12.1533 44.5889 12.1533H47.0728C48.193 12.1533 49.1184 11.3641 49.1184 10.3282V3.86612C49.0697 2.83022 48.193 2.04095 47.0728 2.04095ZM47.2189 9.98285C47.2189 10.2789 46.9267 10.5255 46.5857 10.5255H45.1246C44.7837 10.5255 44.4914 10.2789 44.4914 9.98285V4.31008C44.4914 4.0141 44.7837 3.76746 45.1246 3.76746H46.5857C46.9267 3.76746 47.2189 4.0141 47.2189 4.31008V9.98285Z" fill="white"/>
</svg>
