<svg width="21" height="18" viewBox="0 0 21 18" fill="none" xmlns="http://www.w3.org/2000/svg">
<path d="M13.5154 0.310651C13.5154 0.0184245 13.759 -0.0789842 14.0512 0.0671289L18.5807 2.64846C18.8729 2.79457 18.8729 3.0868 18.5807 3.23291L14.0025 5.76554C13.7103 5.91165 13.4667 5.81424 13.4667 5.52202L13.5154 0.310651Z" fill="#DC2230"/>
<path d="M20.2854 5.71703C20.5776 5.57092 20.8211 5.66833 20.8211 5.96055V11.2206C20.8211 11.5128 20.5776 11.659 20.2854 11.4641L15.6584 8.93152C15.3662 8.7854 15.3662 8.49318 15.6584 8.34707L20.2854 5.71703Z" fill="#232222"/>
<path d="M13.418 11.6101C13.418 11.3178 13.6616 11.1717 13.9538 11.3665L18.5807 13.9966C18.8729 14.1427 18.8729 14.4349 18.5807 14.581L14.0025 17.1137C13.7103 17.2598 13.4667 17.1624 13.4667 16.8701V11.6101H13.418Z" fill="#DC2230"/>
<path d="M9.18077 2.40494C9.86263 1.9666 10.4471 2.21012 10.4471 2.98939L10.3984 14.1914C10.3984 14.922 9.81393 15.2142 9.13207 14.7758L0.511396 9.41837C-0.170465 8.98003 -0.170465 8.29817 0.511396 7.85983L9.18077 2.40494Z" fill="#232222"/>
</svg>
