<svg width="28" height="18" viewBox="0 0 28 18" fill="none" xmlns="http://www.w3.org/2000/svg">
<path d="M9.05455 3.27273C10.9455 3.27273 12.656 4.24304 13.6364 5.58004L15.9599 3.23991C14.5702 1.43288 11.8956 0 9.05455 0C4.08004 0 0 4.0255 0 9C0 13.9745 4.08004 18 9.05455 18C13.1783 18 16.6472 15.2346 17.7109 11.4545C17.9399 10.669 18.0545 9.85078 18.0545 9V8.18182H9.87273V11.4539H14.2091C13.3091 13.3849 11.329 14.7273 9.05455 14.7273C5.89645 14.7273 3.27273 12.1581 3.27273 9C3.27273 5.8419 5.89645 3.27273 9.05455 3.27273Z" fill="#444445"/>
<path d="M25.4182 4.90912H22.1455V7.36366H19.6909V10.6364H22.1455V13.0909H25.4182V10.6364H27.9273V7.36366H25.4182V4.90912Z" fill="#444445"/>
</svg>
