<svg width="26" height="23" viewBox="0 0 26 23" fill="none" xmlns="http://www.w3.org/2000/svg">
<path d="M23.1494 2.85062C22.5629 2.26392 21.8667 1.79851 21.1003 1.48097C20.334 1.16344 19.5126 1 18.6831 1C17.8535 1 17.0321 1.16344 16.2658 1.48097C15.4994 1.79851 14.8032 2.26392 14.2167 2.85062L12.9997 4.06767L11.7826 2.85062C10.5981 1.66608 8.99152 1.00061 7.31633 1.00061C5.64114 1.00061 4.03455 1.66608 2.85001 2.85062C1.66547 4.03517 1 5.64175 1 7.31694C1 8.99214 1.66547 10.5987 2.85001 11.7833L4.06705 13.0003L12.9997 21.9329L21.9323 13.0003L23.1494 11.7833C23.7361 11.1968 24.2015 10.5006 24.519 9.73422C24.8366 8.96787 25 8.14647 25 7.31694C25 6.48742 24.8366 5.66602 24.519 4.89967C24.2015 4.13333 23.7361 3.43705 23.1494 2.85062Z" fill="#F30000" stroke="white" stroke-width="1.5" stroke-linecap="round" stroke-linejoin="round"/>
</svg>
