<svg width="20" height="17" viewBox="0 0 18 16" fill="none" xmlns="http://www.w3.org/2000/svg">
<path d="M16.612 1.38797C16.1722 0.947942 15.65 0.598882 15.0752 0.36073C14.5005 0.122577 13.8844 0 13.2623 0C12.6401 0 12.0241 0.122577 11.4493 0.36073C10.8746 0.598882 10.3524 0.947942 9.91255 1.38797L8.99977 2.30075L8.08699 1.38797C7.19858 0.499562 5.99364 0.000460492 4.73725 0.000460501C3.48085 0.000460511 2.27591 0.499562 1.38751 1.38797C0.499101 2.27637 9.36088e-09 3.48131 0 4.73771C-9.36088e-09 5.9941 0.499101 7.19904 1.38751 8.08745L2.30029 9.00023L8.99977 15.6997L15.6992 9.00023L16.612 8.08745C17.0521 7.64763 17.4011 7.12542 17.6393 6.55066C17.8774 5.9759 18 5.35985 18 4.73771C18 4.11556 17.8774 3.49951 17.6393 2.92475C17.4011 2.34999 17.0521 1.82779 16.612 1.38797Z" fill="#E02B4A"/>
</svg>
