<svg width="18" height="23" viewBox="0 0 18 23" fill="none" xmlns="http://www.w3.org/2000/svg">
<path d="M9.30118 0C3.22917 0 0 3.89107 0 8.13386C0 10.1015 1.09947 12.5553 2.85945 13.3335C3.1267 13.454 3.2721 13.4027 3.33164 13.1549C3.38426 12.9665 3.61551 12.0595 3.72767 11.6317C3.76229 11.4946 3.74429 11.3755 3.63351 11.2467C3.04916 10.571 2.58528 9.33995 2.58528 8.18509C2.58528 5.22594 4.93792 2.35264 8.94115 2.35264C12.403 2.35264 14.8248 4.60143 14.8248 7.81814C14.8248 11.453 12.9015 13.9677 10.402 13.9677C9.01869 13.9677 7.98846 12.8821 8.31526 11.5389C8.7099 9.93954 9.48396 8.21971 9.48396 7.06624C9.48396 6.03185 8.89961 5.17609 7.70598 5.17609C6.29772 5.17609 5.15532 6.57051 5.15532 8.44265C5.15532 9.63213 5.57628 10.4353 5.57628 10.4353C5.57628 10.4353 4.18325 16.0628 3.9243 17.1138C3.48673 18.8931 3.98385 21.7748 4.02677 22.0226C4.05308 22.1597 4.20679 22.2026 4.29264 22.0905C4.42973 21.9105 6.11355 19.508 6.58574 17.7715C6.75744 17.1387 7.46227 14.5728 7.46227 14.5728C7.92615 15.4106 9.26517 16.1126 10.6914 16.1126C14.9342 16.1126 18 12.3836 18 7.75583C17.9848 3.31918 14.1879 0 9.30118 0Z" fill="#444445"/>
</svg>
