<svg width="28" height="28" viewBox="0 0 28 28" fill="none" xmlns="http://www.w3.org/2000/svg">
<circle cx="14" cy="14" r="14" fill="#C4C4C4"/>
<path d="M12.926 19.804C12.7393 19.6173 12.646 19.3887 12.646 19.118C12.646 18.8473 12.7393 18.6187 12.926 18.432C13.1127 18.2453 13.3367 18.152 13.598 18.152C13.8687 18.152 14.0973 18.2453 14.284 18.432C14.4707 18.6187 14.564 18.8473 14.564 19.118C14.564 19.3887 14.4707 19.6173 14.284 19.804C14.0973 19.9907 13.8687 20.084 13.598 20.084C13.3367 20.084 13.1127 19.9907 12.926 19.804ZM11.344 12.412C11.3347 11.5533 11.6147 10.858 12.184 10.326C12.7533 9.794 13.5093 9.528 14.452 9.528C15.404 9.528 16.1647 9.78933 16.734 10.312C17.3127 10.8347 17.602 11.5767 17.602 12.538C17.602 13.49 17.3267 14.1853 16.776 14.624C16.2253 15.0627 15.4087 15.2867 14.326 15.296V17.004H12.814V14.204H13.486C14.3633 14.2133 15.012 14.1013 15.432 13.868C15.8613 13.6253 16.076 13.154 16.076 12.454C16.076 11.9593 15.9313 11.572 15.642 11.292C15.362 11.012 14.97 10.872 14.466 10.872C13.962 10.872 13.5653 11.0073 13.276 11.278C12.9867 11.5487 12.842 11.9267 12.842 12.412H11.344Z" fill="#585858"/>
</svg>
