<svg width="20" height="18" viewBox="0 0 20 18" fill="none" xmlns="http://www.w3.org/2000/svg">
<path d="M17.0805 0.00461223C14.3072 -0.0984935 12.4339 1.52734 11.4456 4.85655C11.9539 4.62392 12.4481 4.51996 12.9264 4.51996C13.9422 4.51996 14.3914 5.11389 14.2714 6.29406C14.2114 7.00899 13.7647 8.04856 12.9281 9.41621C12.0873 10.7838 11.459 11.4689 11.0406 11.4689C9.77232 11.4689 9.00983 5.26215 8.7515 3.5673C8.39234 1.21121 7.43486 0.109422 5.87906 0.263655C4.45075 0.402549 1.9583 3.03217 0 4.81479L0.940816 6.0691C1.83663 5.41979 2.35912 5.09429 2.50829 5.09429C4.06742 5.09429 4.82241 10.5197 6.03322 14.5545C6.84571 16.781 7.81986 17.8947 8.994 17.8947C10.8806 17.8947 13.1789 16.0678 15.9022 12.4122C18.5313 8.91261 19.893 6.15432 19.9805 4.14248L19.9913 4.13396C20.103 1.43702 19.1405 0.0565912 17.0805 0.00461223Z" fill="#444445"/>
</svg>
