<svg width="20" height="20" viewBox="0 0 20 14" fill="none" xmlns="http://www.w3.org/2000/svg">
<path d="M19.15 1.325C18.6075 0.36 18.0188 0.1825 16.82 0.115C15.6225 0.03375 12.6112 0 10.0025 0C7.38875 0 4.37625 0.0337501 3.18 0.11375C1.98375 0.1825 1.39375 0.35875 0.84625 1.325C0.2875 2.28875 0 3.94875 0 6.87125C0 6.87375 0 6.875 0 6.875C0 6.8775 0 6.87875 0 6.87875V6.88125C0 9.79125 0.2875 11.4637 0.84625 12.4175C1.39375 13.3825 1.9825 13.5575 3.17875 13.6388C4.37625 13.7088 7.38875 13.75 10.0025 13.75C12.6112 13.75 15.6225 13.7087 16.8212 13.64C18.02 13.5587 18.6087 13.3838 19.1513 12.4188C19.715 11.465 20 9.7925 20 6.8825C20 6.8825 20 6.87875 20 6.87625C20 6.87625 20 6.87375 20 6.8725C20 3.94875 19.715 2.28875 19.15 1.325ZM7.5 10.625V3.125L13.75 6.875L7.5 10.625Z" fill="#444445"/>
</svg>
