<svg width="18" height="20" viewBox="0 0 18 20" fill="none" xmlns="http://www.w3.org/2000/svg">
<path d="M1 4.55554H2.77778H17" stroke="#444445" stroke-width="1.5" stroke-linecap="round" stroke-linejoin="round"/>
<path d="M5.44444 4.55556V2.77778C5.44444 2.30628 5.63174 1.8541 5.96514 1.5207C6.29854 1.1873 6.75072 1 7.22222 1H10.7778C11.2493 1 11.7015 1.1873 12.0348 1.5207C12.3682 1.8541 12.5555 2.30628 12.5555 2.77778V4.55556M15.2222 4.55556V17C15.2222 17.4715 15.0349 17.9237 14.7015 18.2571C14.3681 18.5905 13.9159 18.7778 13.4444 18.7778H4.55555C4.08405 18.7778 3.63187 18.5905 3.29847 18.2571C2.96507 17.9237 2.77777 17.4715 2.77777 17V4.55556H15.2222Z" stroke="#444445" stroke-width="1.5" stroke-linecap="round" stroke-linejoin="round"/>
<path d="M7.22223 9V14.3333" stroke="#444445" stroke-width="1.5" stroke-linecap="round" stroke-linejoin="round"/>
<path d="M10.7778 9V14.3333" stroke="#444445" stroke-width="1.5" stroke-linecap="round" stroke-linejoin="round"/>
</svg>
